<?xml version="1.0" encoding="UTF-8" standalone="no"?>
<svg
   viewBox="0 0 253.02 294.74"
   version="1.1"
   id="svg292"
   sodipodi:docname="rocket.svg"
   xml:space="preserve"
   inkscape:version="1.2.2 (b0a8486541, 2022-12-01)"
   xmlns:inkscape="http://www.inkscape.org/namespaces/inkscape"
   xmlns:sodipodi="http://sodipodi.sourceforge.net/DTD/sodipodi-0.dtd"
   xmlns="http://www.w3.org/2000/svg"
   xmlns:svg="http://www.w3.org/2000/svg"><sodipodi:namedview
     id="namedview294"
     pagecolor="#ffffff"
     bordercolor="#666666"
     borderopacity="1.0"
     inkscape:showpageshadow="2"
     inkscape:pageopacity="0.0"
     inkscape:pagecheckerboard="0"
     inkscape:deskcolor="#d1d1d1"
     showgrid="false"
     inkscape:zoom="2.463862"
     inkscape:cx="46.877626"
     inkscape:cy="160.31742"
     inkscape:window-width="1920"
     inkscape:window-height="1011"
     inkscape:window-x="0"
     inkscape:window-y="0"
     inkscape:window-maximized="1"
     inkscape:current-layer="g2001" /><defs
     id="defs4"><style
       id="style2">.cls-1{fill:#fff;}.cls-2{fill:#dff6ff;}.cls-3{fill:#e8f1f5;}.cls-4{fill:#aad4e2;opacity:0.25;}.cls-13,.cls-14,.cls-18,.cls-19,.cls-20,.cls-21,.cls-22,.cls-23,.cls-24,.cls-25,.cls-26,.cls-28,.cls-29,.cls-30,.cls-31,.cls-5,.cls-8{fill:none;stroke-linecap:round;stroke-linejoin:round;}.cls-19,.cls-20,.cls-5{stroke:#fff;}.cls-5{stroke-width:4px;}.cls-6{fill:#ecf3f6;}.cls-7{fill:#f56137;}.cls-8{stroke:#ffab97;}.cls-18,.cls-19,.cls-31,.cls-8{stroke-width:2px;}.cls-9{fill:#ffc000;}.cls-10{fill:#ffe92d;}.cls-11{fill:#fd6768;}.cls-12{fill:#e5353e;}.cls-13,.cls-14,.cls-21,.cls-22,.cls-23,.cls-24,.cls-25,.cls-26,.cls-29,.cls-30{stroke:#1f033c;}.cls-14{stroke-width:0.58px;}.cls-15{fill:#88d5ed;}.cls-16{fill:#baaba7;}.cls-17{fill:#6f605a;}.cls-18{stroke:#ffabaf;}.cls-20{stroke-width:3px;}.cls-21{stroke-width:0.79px;}.cls-22{stroke-width:0.76px;}.cls-23{stroke-width:0.71px;}.cls-24{stroke-width:0.59px;}.cls-25{stroke-width:0.82px;}.cls-26{stroke-width:0.73px;}.cls-27{fill:#1f033c;}.cls-28{stroke:#6f605a;}.cls-29{stroke-width:0.74px;}.cls-30{stroke-width:0.84px;}.cls-31{stroke:#b0c9d1;}</style><style
       type="text/css"
       id="style2-6">
   
    .fil0 {fill:black}
   
  </style></defs><g
     id="Layer_2"
     data-name="Layer 2"><g
       id="Layer_1-2"
       data-name="Layer 1"><path
         class="cls-1"
         d="M16.43,192.56l-14.65,8.1,18.81,34,2.43,4.4h0l.07.13,4.17,7.54,6.55,11.84h0l1,1.75,14.65-8.1Zm-3.86,27.58,0,0h0Z"
         id="path6" /><path
         class="cls-2"
         d="M59.47,275c-5.23-15.31-23.42-22-32.46-35.39a34.91,34.91,0,0,1-1.49-35.71c2.92-5.24,7.18-9.63,10.22-14.81,9.41-16.07,5.88-37.33,15.45-53.3,7.79-13,24.25-20.18,39.09-17,3.88.83,7.64,2.29,11.59,2.75,4.82.56,9.67-.41,14.47-1.12,11.2-1.66,23-1.87,33.41,2.64,6.54,2.84,12.18,7.42,17.3,12.38,26.07,25.22,40.42,62.66,35.8,98.63-.79,6.15-2.1,12.23-2.68,18.4-.79,8.47-.18,17.05-1.34,25.49-.3,2.18-.77,4.47-2.24,6.12-1.67,1.89-4.3,2.57-6.78,3.06-10.88,2.14-22,2.45-33.11,2.76l-70.47,1.94"
         id="path8" /><line
         class="cls-1"
         x1="187.12"
         y1="187.84"
         x2="178.14"
         y2="187.84"
         id="line10" /><path
         class="cls-1"
         d="M173.87,187.84h-4.49a4.59,4.59,0,0,0-6.12-2.57s-.71-6.89-9.33-6.89-9.12,10.31-9.12,10.31h-3.17"
         id="path12" /><line
         class="cls-1"
         x1="1.5"
         y1="182.25"
         x2="14.99"
         y2="182.25"
         id="line14" /><path
         class="cls-1"
         d="M21.41,182.25h6.74s2.25-6.21,9.2-3.85c0,0,1.06-10.36,14-10.36s13.71,15.49,13.71,15.49h6.62"
         id="path16" /><path
         class="cls-1"
         d="M231.45,292.88c-4.42-12.33-17.35-9.14-17.35-9.14l5.12-.42c0-16.68-16-23.47-16-23.47l-3.3-1c-26.13-10-40.56,12.36-40.56,12.36l-.91.9c-8.85-12.71-32-11.7-42,.68l6.52,20.4Z"
         id="path18" /><path
         class="cls-3"
         d="M8.93,293c0-14.14,10.12-23.46,22.59-23.46a20.37,20.37,0,0,1,8.92,2.08c6.07-11.07,16.9-18.43,29.24-18.43,10.73,0,20.32,5.57,26.64,14.29,9.51-2.42,19.74,2,25.27,11.84A32.25,32.25,0,0,1,125.28,293"
         id="path20" /><path
         class="cls-4"
         d="M105.72,293H8.46c0-14.13,10.12-23.45,22.59-23.45A20.36,20.36,0,0,1,40,271.61,36.36,36.36,0,0,1,54.55,256.9C58.81,263.65,75,286,105.72,293Z"
         id="path22" /><path
         class="cls-5"
         d="M10.93,292.59c1-12.7,8.1-20.47,20.24-21.88,3.12-.36,8.33,1.13,10,3.25,6-11.06,16.82-19.2,29.09-19.2,10.65,0,18.91,6.63,25.41,14.26,9.44-2.41,19.07,1.87,24.56,11.72a25.37,25.37,0,0,1,3.53,12"
         id="path24" /><path
         class="cls-6"
         d="M109.19,159.14,79.77,254.7s13.8,6.08,16.43,13.05a21.22,21.22,0,0,1,20,4.94,30.92,30.92,0,0,1,24.86-9.89l-20.44-99.67"
         id="path26" /><line
         class="cls-5"
         x1="109.19"
         y1="163.14"
         x2="83.53"
         y2="248.49"
         id="line28" /><path
         class="cls-7"
         d="M107.24,150a3.29,3.29,0,0,0-.58.62,22.08,22.08,0,0,0-3.26,23.29l5.83,13.22a2.57,2.57,0,0,0,4.2.46L124,174.09a22.18,22.18,0,0,0,3.34-22l-.4-1"
         id="path30" /><path
         class="cls-8"
         d="M108.07,150.13a3.19,3.19,0,0,0-.59.62A22.06,22.06,0,0,0,104.23,174l5.82,13.23"
         id="path32" /><path
         class="cls-9"
         d="M110,150.27a2.62,2.62,0,0,0-.44.47A16.88,16.88,0,0,0,107,168.48l4.43,10.08a2,2,0,0,0,3.19.35l8-10.3a16.92,16.92,0,0,0,2.54-16.74l-.3-.77"
         id="path34" /><path
         class="cls-10"
         d="M111.75,150.27a2.09,2.09,0,0,0-.31.33,11.85,11.85,0,0,0-1.74,12.45l3.11,7.07a1.37,1.37,0,0,0,2.24.24l5.6-7.23a11.87,11.87,0,0,0,1.78-11.74l-.21-.54"
         id="path36" /><path
         class="cls-7"
         d="M120.11,151c-.2,2.43-1.94,4.26-3.89,4.1s-3.36-2.26-3.16-4.68"
         id="path38" /><path
         class="cls-11"
         d="M99.49,141.73l-.32,5.63a2.2,2.2,0,0,0,2.06,2.31L136,151.6a2.18,2.18,0,0,0,2.3-2l.3-5.39"
         id="path40" /><path
         class="cls-12"
         d="M99.75,137.62l-.32,5.63a2.18,2.18,0,0,0,2.06,2.3l34.8,1.94a2.18,2.18,0,0,0,2.3-2.06l.3-5.38"
         id="path42" /><path
         class="cls-13"
         d="M99.49,141.73l-.32,5.63a2.2,2.2,0,0,0,2.06,2.31L136,151.6a2.18,2.18,0,0,0,2.3-2l.3-5.39"
         id="path44" /><path
         class="cls-13"
         d="M101.64,167.66a22.72,22.72,0,0,0,1.76,6.27l5.83,13.22a2.57,2.57,0,0,0,4.2.46L124,174.09a22.18,22.18,0,0,0,3.34-22l-.4-1"
         id="path46" /><path
         class="cls-13"
         d="M107.24,150a3.29,3.29,0,0,0-.58.62,22.25,22.25,0,0,0-5.2,13.83"
         id="path48" /><path
         class="cls-14"
         d="M120.11,151c-.2,2.43-1.94,4.26-3.89,4.1s-3.36-2.26-3.16-4.68"
         id="path50" /><path
         class="cls-2"
         d="M140.74,144l-43.91-2.44a7.76,7.76,0,0,1-7.31-8.08c1.07-25.13,6.79-97.63,37.19-133C153,39,150.62,111.7,148.9,136.8A7.75,7.75,0,0,1,140.74,144Z"
         id="path52" /><path
         class="cls-15"
         d="M149,136.77a7.74,7.74,0,0,1-8.16,7.21l-7.44-.41a7.73,7.73,0,0,0,5.21-6.8c1.61-23.53,3.8-88.89-17.59-128.7a82.54,82.54,0,0,1,5.79-7.6C153.08,39,150.71,111.67,149,136.77Z"
         id="path54" /><path
         class="cls-15"
         d="M133.19,143.18a6.56,6.56,0,0,1-.62.23l.61,0v0l-4.38-.31c1.82-25.51,3.13-88.92-12.32-128.06Q117.7,13,119,11C136.44,50.57,135.09,116.76,133.19,143.18Z"
         id="path56" /><path
         class="cls-16"
         d="M139.2,26.75,111.43,25.2l.13-.28c.31-.67.62-1.34,1-2,.08-.18.17-.36.26-.54.34-.71.69-1.42,1-2.12.14-.28.28-.56.43-.84.3-.59.6-1.17.92-1.74a.91.91,0,0,1,.07-.14l21,1.17C137.31,21.31,138.29,24,139.2,26.75Z"
         id="path58" /><path
         class="cls-17"
         d="M138.64,26.46l-10.53-.59q-1.37-4.12-3-8l10.56.59C136.75,21,137.73,23.71,138.64,26.46Z"
         id="path60" /><line
         class="cls-11"
         x1="81.46"
         y1="94.07"
         x2="79.53"
         y2="128.71"
         id="line62" /><line
         class="cls-11"
         x1="83.36"
         y1="99.34"
         x2="83.23"
         y2="101.64"
         id="line64" /><line
         class="cls-11"
         x1="83.11"
         y1="103.89"
         x2="82.98"
         y2="106.18"
         id="line66" /><line
         class="cls-11"
         x1="82.85"
         y1="108.43"
         x2="82.72"
         y2="110.73"
         id="line68" /><line
         class="cls-11"
         x1="82.6"
         y1="112.98"
         x2="82.47"
         y2="115.28"
         id="line70" /><line
         class="cls-11"
         x1="82.34"
         y1="117.6"
         x2="82.22"
         y2="119.75"
         id="line72" /><line
         class="cls-11"
         x1="82.09"
         y1="122.14"
         x2="81.97"
         y2="124.3"
         id="line74" /><path
         class="cls-11"
         d="M94.28,85.63C80.58,97,59.26,102.77,54.35,104a1.49,1.49,0,0,0-1.12,1.37L50,162.83h0a19,19,0,0,0,7-7c2.6-4.53,6.81-11.68,10.72-17.31A28.48,28.48,0,0,1,78.85,129l11.2-5.37"
         id="path76" /><line
         class="cls-18"
         x1="53.19"
         y1="127.51"
         x2="52.35"
         y2="143.32"
         id="line78" /><line
         class="cls-19"
         x1="52.93"
         y1="132.03"
         x2="52.6"
         y2="138.42"
         id="line80" /><path
         class="cls-18"
         d="M53.7,121.17l.81-14.83a.85.85,0,0,1,.61-.76,156.73,156.73,0,0,0,16.74-5.4"
         id="path82" /><path
         class="cls-19"
         d="M54.07,114.34l.44-8a.85.85,0,0,1,.61-.76c1.07-.28,3.52-1,6.38-1.81"
         id="path84" /><polygon
         class="cls-12"
         points="79.54 129.02 77.8 130 79.46 95.33 81.22 94.17 79.54 129.02"
         id="polygon86" /><line
         class="cls-11"
         x1="161.55"
         y1="98.96"
         x2="159.62"
         y2="133.6"
         id="line88" /><line
         class="cls-11"
         x1="159.08"
         y1="103.98"
         x2="158.95"
         y2="106.28"
         id="line90" /><line
         class="cls-11"
         x1="158.82"
         y1="108.53"
         x2="158.7"
         y2="110.82"
         id="line92" /><line
         class="cls-11"
         x1="158.57"
         y1="113.07"
         x2="158.44"
         y2="115.37"
         id="line94" /><line
         class="cls-11"
         x1="158.32"
         y1="117.62"
         x2="158.19"
         y2="119.92"
         id="line96" /><line
         class="cls-11"
         x1="158.06"
         y1="122.24"
         x2="157.94"
         y2="124.39"
         id="line98" /><line
         class="cls-11"
         x1="157.81"
         y1="126.78"
         x2="157.69"
         y2="128.94"
         id="line100" /><path
         class="cls-11"
         d="M149.72,89.13c12.35,12.79,32.89,20.92,37.63,22.72a1.51,1.51,0,0,1,1,1.49l-3.2,57.42h0a18.83,18.83,0,0,1-6.19-7.75c-2.08-4.79-5.48-12.36-8.73-18.39a28.53,28.53,0,0,0-10-10.64l-10.54-6.59"
         id="path102" /><path
         class="cls-12"
         d="M93.76,86.77,94.13,88c-.66,4.09-.85,7.61-1.3,11.19-.16,1.21-.33,2.86-.46,4-.88,7.61-1.7,14-2.12,20.3l-5,3.32c.58-9.49,1.71-22.39,3.87-36.62A58.08,58.08,0,0,0,93.76,86.77Z"
         id="path104" /><path
         class="cls-12"
         d="M149.51,89.62v.13c.79,14.71.62,28.13.23,38.17l4,2.47c.43-9.5.67-22.45,0-36.82A57.52,57.52,0,0,1,149.51,89.62Z"
         id="path106" /><rect
         class="cls-15"
         x="118.28"
         y="106.15"
         width="2"
         height="59.13"
         transform="translate(-22.86 247.26) rotate(-86.81)"
         id="rect108" /><path
         class="cls-20"
         d="M111.7,27.48S101.76,46.75,96.3,80"
         id="path110" /><path
         class="cls-13"
         d="M97.29,70c1.55-7.32,3.4-14.73,5.61-22"
         id="path112" /><path
         class="cls-13"
         d="M92.3,100.18c1-8,1.8-14.81,3.53-23.66"
         id="path114" /><line
         class="cls-21"
         x1="114.75"
         y1="134.26"
         x2="148.68"
         y2="136.15"
         id="line116" /><line
         class="cls-21"
         x1="107.98"
         y1="133.88"
         x2="111.46"
         y2="134.08"
         id="line118" /><line
         class="cls-21"
         x1="89.64"
         y1="132.86"
         x2="105.06"
         y2="133.72"
         id="line120" /><line
         class="cls-21"
         x1="80.91"
         y1="104.34"
         x2="79.53"
         y2="129.13"
         id="line122" /><line
         class="cls-21"
         x1="81.46"
         y1="94.49"
         x2="81.11"
         y2="100.89"
         id="line124" /><line
         class="cls-22"
         x1="83.36"
         y1="99.76"
         x2="83.23"
         y2="102.06"
         id="line126" /><line
         class="cls-22"
         x1="83.11"
         y1="104.31"
         x2="82.98"
         y2="106.61"
         id="line128" /><line
         class="cls-22"
         x1="82.85"
         y1="108.86"
         x2="82.72"
         y2="111.15"
         id="line130" /><line
         class="cls-22"
         x1="82.6"
         y1="113.4"
         x2="82.47"
         y2="115.7"
         id="line132" /><line
         class="cls-23"
         x1="82.34"
         y1="118.02"
         x2="82.22"
         y2="120.17"
         id="line134" /><line
         class="cls-23"
         x1="82.09"
         y1="122.57"
         x2="81.97"
         y2="124.72"
         id="line136" /><path
         class="cls-21"
         d="M68.74,137.62a28.48,28.48,0,0,1,10.14-8.17l11.21-5.38"
         id="path138" /><path
         class="cls-21"
         d="M58.3,154.09c2.44-4.18,5.74-9.67,8.9-14.31"
         id="path140" /><path
         class="cls-21"
         d="M94.31,86c-13.69,11.34-35,17.14-39.92,18.4a1.51,1.51,0,0,0-1.13,1.37l-3.2,57.43h0a19,19,0,0,0,5.29-4.49"
         id="path142" /><line
         class="cls-21"
         x1="160.86"
         y1="111.36"
         x2="159.62"
         y2="133.6"
         id="line144" /><line
         class="cls-21"
         x1="161.55"
         y1="98.96"
         x2="161.1"
         y2="106.96"
         id="line146" /><line
         class="cls-22"
         x1="159.08"
         y1="103.98"
         x2="158.95"
         y2="106.28"
         id="line148" /><line
         class="cls-22"
         x1="158.82"
         y1="108.53"
         x2="158.7"
         y2="110.82"
         id="line150" /><line
         class="cls-22"
         x1="158.57"
         y1="113.07"
         x2="158.44"
         y2="115.37"
         id="line152" /><line
         class="cls-22"
         x1="158.32"
         y1="117.62"
         x2="158.19"
         y2="119.92"
         id="line154" /><line
         class="cls-23"
         x1="158.06"
         y1="122.24"
         x2="157.94"
         y2="124.39"
         id="line156" /><line
         class="cls-23"
         x1="157.81"
         y1="126.78"
         x2="157.69"
         y2="128.94"
         id="line158" /><path
         class="cls-21"
         d="M187.28,131.93l-2.16,38.83h0a18.83,18.83,0,0,1-6.19-7.75c-2.08-4.79-5.48-12.36-8.73-18.39a28.53,28.53,0,0,0-10-10.64l-10.54-6.59"
         id="path160" /><path
         class="cls-21"
         d="M149.72,89.13c12.35,12.79,32.89,20.92,37.63,22.72a1.51,1.51,0,0,1,1,1.49l-.73,13"
         id="path162" /><line
         class="cls-21"
         x1="101.87"
         y1="182.35"
         x2="79.77"
         y2="254.7"
         id="line164" /><line
         class="cls-21"
         x1="124.82"
         y1="182.35"
         x2="141.09"
         y2="262.8"
         id="line166" /><line
         class="cls-13"
         x1="103.9"
         y1="196.59"
         x2="97.62"
         y2="218.35"
         id="line168" /><line
         class="cls-13"
         x1="92.56"
         y1="234.21"
         x2="89.5"
         y2="244.8"
         id="line170" /><line
         class="cls-13"
         x1="35.1"
         y1="260.34"
         x2="2.1"
         y2="200.66"
         id="line172" /><line
         class="cls-13"
         x1="16.75"
         y1="192.56"
         x2="49.75"
         y2="252.24"
         id="line174" /><line
         class="cls-24"
         x1="2.1"
         y1="200.66"
         x2="27.54"
         y2="212.07"
         id="line176" /><line
         class="cls-24"
         x1="16.75"
         y1="192.56"
         x2="12.88"
         y2="220.17"
         id="line178" /><line
         class="cls-24"
         x1="12.88"
         y1="220.17"
         x2="38.32"
         y2="231.58"
         id="line180" /><line
         class="cls-24"
         x1="27.54"
         y1="212.07"
         x2="23.67"
         y2="239.68"
         id="line182" /><line
         class="cls-24"
         x1="23.34"
         y1="239.08"
         x2="48.78"
         y2="250.49"
         id="line184" /><line
         class="cls-24"
         x1="38"
         y1="230.98"
         x2="34.13"
         y2="258.59"
         id="line186" /><line
         class="cls-13"
         x1="184.84"
         y1="251.44"
         x2="206.53"
         y2="158.17"
         id="line188" /><line
         class="cls-13"
         x1="229.43"
         y1="163.5"
         x2="207.74"
         y2="256.76"
         id="line190" /><line
         class="cls-24"
         x1="206.53"
         y1="158.17"
         x2="222.34"
         y2="193.98"
         id="line192" /><line
         class="cls-24"
         x1="229.43"
         y1="163.5"
         x2="199.44"
         y2="188.66"
         id="line194" /><line
         class="cls-24"
         x1="199.44"
         y1="188.66"
         x2="215.25"
         y2="224.47"
         id="line196" /><line
         class="cls-24"
         x1="222.34"
         y1="193.98"
         x2="192.35"
         y2="219.15"
         id="line198" /><line
         class="cls-24"
         x1="192.56"
         y1="218.22"
         x2="208.37"
         y2="254.03"
         id="line200" /><line
         class="cls-24"
         x1="215.46"
         y1="223.54"
         x2="185.47"
         y2="248.7"
         id="line202" /><line
         class="cls-13"
         x1="130.08"
         y1="234.32"
         x2="131.21"
         y2="240.63"
         id="line204" /><line
         class="cls-13"
         x1="123.02"
         y1="195.13"
         x2="129.04"
         y2="228.55"
         id="line206" /><line
         class="cls-13"
         x1="133.12"
         y1="248.49"
         x2="134.04"
         y2="255.7"
         id="line208" /><line
         class="cls-13"
         x1="117.1"
         y1="201.62"
         x2="120.52"
         y2="226.82"
         id="line210" /><line
         class="cls-13"
         x1="121.59"
         y1="236.16"
         x2="122.23"
         y2="241.66"
         id="line212" /><path
         class="cls-13"
         d="M116.41,272.76c10-12.38,33.77-14.33,42.92.89"
         id="path214" /><path
         class="cls-13"
         d="M159.33,271.18s14.43-22.35,40.56-12.36"
         id="path216" /><path
         class="cls-13"
         d="M203.19,259.85s16,6.79,16,23.47"
         id="path218" /><path
         class="cls-13"
         d="M214.1,283.74s12.93-3.19,17.35,9.14"
         id="path220" /><line
         class="cls-25"
         x1="1.5"
         y1="182.25"
         x2="14.99"
         y2="182.25"
         id="line222" /><path
         class="cls-25"
         d="M21.41,182.25h6.74s2.25-6.21,9.2-3.85c0,0,1.06-10.36,14-10.36s13.71,15.49,13.71,15.49h7"
         id="path224" /><line
         class="cls-21"
         x1="187.12"
         y1="187.84"
         x2="178.14"
         y2="187.84"
         id="line226" /><path
         class="cls-21"
         d="M173.87,187.84h-4.49a4.59,4.59,0,0,0-6.12-2.57s-.71-6.89-9.33-6.89-9.12,10.31-9.12,10.31h-4.76"
         id="path228" /><line
         class="cls-26"
         x1="103.51"
         y1="46"
         x2="103.93"
         y2="44.68"
         id="line230" /><line
         class="cls-13"
         x1="96.76"
         y1="72.09"
         x2="96.47"
         y2="73.51"
         id="line232" /><circle
         class="cls-27"
         cx="56.87"
         cy="156.53"
         r="0.54"
         id="circle234" /><polyline
         class="cls-28"
         points="119.02 24.99 130.93 25.69 138.35 26.1 136.35 20.67"
         id="polyline236" /><path
         class="cls-13"
         d="M104.53,42.84C109.85,26.78,117,11.76,126.71.5,153,39,150.62,111.7,148.9,136.8a7.75,7.75,0,0,1-8.16,7.21l-43.91-2.44a7.76,7.76,0,0,1-7.31-8.08c.3-7.06,1-17.87,2.45-30.55"
         id="path238" /><line
         class="cls-29"
         x1="129.76"
         y1="18.34"
         x2="136.23"
         y2="18.7"
         id="line240" /><line
         class="cls-29"
         x1="121.33"
         y1="17.87"
         x2="128.35"
         y2="18.26"
         id="line242" /><line
         class="cls-29"
         x1="115.22"
         y1="17.53"
         x2="119.26"
         y2="17.75"
         id="line244" /><line
         class="cls-29"
         x1="111.7"
         y1="25.22"
         x2="138.92"
         y2="26.73"
         id="line246" /><circle
         class="cls-1"
         cx="120.83"
         cy="106.61"
         r="18.98"
         id="circle248" /><path
         class="cls-15"
         d="M129.87,102.8h0q-.44-.18-.87-.33c.06-.19.12-.39.17-.59.85-3.2.56-5.84-.88-6.78s-3.76-.17-6.23,1.75l-.71.59-.44-.45c-2.34-2.33-4.76-3.39-6.3-2.61s-2,3.17-1.6,6.28c0,.3.1.61.16.91-.36.08-.7.17-1,.27-3,.85-4.89,2.33-5,4s1.8,3.51,4.75,4.71c.24.1.48.19.73.27-.1.32-.19.64-.27,1-.74,3-.43,5.4.95,6.3s3.93.2,6.44-1.77c.2-.15.4-.32.6-.49.23.24.46.48.7.71,2.22,2.14,4.46,3.07,5.93,2.33s2.13-3.32,1.69-6.48c0-.24-.08-.49-.13-.74l.52-.13c3.19-.87,5.32-2.44,5.42-4.16S132.76,104,129.87,102.8Zm-7.09-5c2.12-1.64,4-2.23,4.87-1.69h0c.89.58,1.12,2.73.39,5.5,0,.18-.1.36-.15.54a28.12,28.12,0,0,0-3.62-.78,27,27,0,0,0-2.15-3c.22-.19.43-.37.66-.55Zm-7.63,9.89c.22.5.46,1,.7,1.46s.51,1,.78,1.46a23.71,23.71,0,0,1-2.5-.55Q114.57,108.88,115.15,107.66Zm.16-2.75a22.84,22.84,0,0,1-.74-2.42c.79-.13,1.63-.22,2.5-.28-.31.43-.62.88-.91,1.33s-.58.91-.86,1.37Zm.54,1.41c.4-.73.83-1.44,1.29-2.14h0q.67-1.05,1.44-2c.81,0,1.65,0,2.49,0s1.68.13,2.49.24c.42.71.82,1.44,1.2,2.18s.72,1.49,1,2.26c-.4.73-.84,1.45-1.29,2.15h0c-.46.7-.93,1.38-1.43,2-.82,0-1.66,0-2.51,0s-1.68-.12-2.47-.22c-.43-.72-.84-1.45-1.22-2.2s-.72-1.5-1-2.27Zm9.64,3.33c.31-.46.6-.93.88-1.4h0a25.14,25.14,0,0,1,.78,2.46,24.64,24.64,0,0,1-2.57.29C124.89,110.56,125.2,110.11,125.49,109.65Zm1-4.11c-.23-.5-.46-1-.71-1.47h0c-.24-.48-.49-.95-.76-1.42.87.16,1.7.36,2.47.58C127.22,104,126.88,104.78,126.51,105.54Zm-5.26-6.43h0a22.6,22.6,0,0,1,1.5,2c-1.07-.11-2.15-.17-3.23-.18C120.09,100.29,120.67,99.67,121.25,99.11Zm-6.1-3.69c.94-.48,2.92.39,4.94,2.4l.39.41A26.89,26.89,0,0,0,118,101a30,30,0,0,0-3.68.37c-.06-.28-.1-.57-.14-.85h0C113.81,97.84,114.26,95.87,115.15,95.42ZM113,109.68c-.22-.07-.44-.16-.66-.25a9.84,9.84,0,0,1-3.09-1.87,2.4,2.4,0,0,1-.93-1.68c.06-1,1.61-2.19,4.13-2.92l1-.24a27.4,27.4,0,0,0,1.14,3.53A29.29,29.29,0,0,0,113,109.68Zm6,5.69a9.92,9.92,0,0,1-3.16,1.75h0a2.39,2.39,0,0,1-1.92,0c-.84-.54-1.09-2.49-.46-5,.08-.3.16-.6.25-.9a26.66,26.66,0,0,0,3.66.74,28.36,28.36,0,0,0,2.18,3Zm1.41-1.25c-.52-.63-1-1.32-1.53-2.06q.78.07,1.59.12c.56,0,1.11,0,1.66,0-.54.66-1.12,1.29-1.72,1.89Zm7,2a2.4,2.4,0,0,1-1,1.65c-.89.45-2.7-.3-4.59-2.12-.21-.21-.43-.43-.65-.67a26.91,26.91,0,0,0,2.45-2.78,27.54,27.54,0,0,0,3.74-.37c0,.23.08.45.11.67h0A10.21,10.21,0,0,1,127.45,116.14Zm1.31-5.78h0l-.46.11a29.43,29.43,0,0,0-1.19-3.54,27.28,27.28,0,0,0,1.52-3.35l.8.3c2.48,1,3.95,2.39,3.89,3.39S131.52,109.61,128.76,110.36Z"
         id="path250" /><path
         class="cls-15"
         d="M120.69,109a2.45,2.45,0,1,0-2.3-2.6h0a2.45,2.45,0,0,0,2.3,2.59Z"
         id="path252" /><path
         class="cls-21"
         d="M102.3,101.18a19.25,19.25,0,0,1,4.3-7.62"
         id="path254" /><path
         class="cls-21"
         d="M109.82,90.75a19.27,19.27,0,1,1-7.93,12.13"
         id="path256" /><line
         class="cls-21"
         x1="0.39"
         y1="292.97"
         x2="252.63"
         y2="292.97"
         id="line258" /><path
         class="cls-21"
         d="M37.31,270.38s8,2.13,11.6,9.16"
         id="path260" /><path
         class="cls-5"
         d="M86.84,275.94s4.42-6.83,12-7.3"
         id="path262" /><path
         class="cls-21"
         d="M97.68,267.18s-8.11,1.5-12.28,8.23"
         id="path264" /><path
         class="cls-30"
         d="M8.93,293c0-14.14,10.12-23.46,22.59-23.46a20.37,20.37,0,0,1,8.92,2.08c6.07-11.07,16.9-18.43,29.24-18.43,10.73,0,20.32,5.57,26.64,14.29,9.51-2.42,19.74,2,25.27,11.84A32.25,32.25,0,0,1,125.28,293"
         id="path266" /><path
         class="cls-13"
         d="M142,268s12.11,3,13.66,12.31c0,0,9.07-2,18.39,5.59"
         id="path268" /><circle
         class="cls-27"
         cx="108.06"
         cy="92.19"
         r="0.54"
         id="circle270" /><line
         class="cls-13"
         x1="22.7"
         y1="195.56"
         x2="10.46"
         y2="202.15"
         id="line272" /><line
         class="cls-13"
         x1="24.96"
         y1="198.38"
         x2="12.72"
         y2="204.97"
         id="line274" /><line
         class="cls-13"
         x1="231.7"
         y1="172.97"
         x2="218.28"
         y2="169.35"
         id="line276" /><line
         class="cls-13"
         x1="231.97"
         y1="177.29"
         x2="218.55"
         y2="173.68"
         id="line278" /><line
         class="cls-31"
         x1="104.3"
         y1="241.21"
         x2="103.45"
         y2="248.55"
         id="line280" /><line
         class="cls-31"
         x1="110.23"
         y1="193.49"
         x2="105.08"
         y2="234.1"
         id="line282" /><line
         class="cls-21"
         x1="75.59"
         y1="119.32"
         x2="74.75"
         y2="131.65"
         id="line284" /><line
         class="cls-25"
         x1="75.12"
         y1="183.54"
         x2="77.52"
         y2="183.54"
         id="line286" /><line
         class="cls-25"
         x1="135.92"
         y1="188.69"
         x2="138.32"
         y2="188.69"
         id="line288" /></g><ellipse
       style="fill:#ffffff;stroke:#ffffff;stroke-width:0.297413;stroke-opacity:1"
       id="path808"
       cx="120.57486"
       cy="106.44483"
       rx="14.146612"
       ry="14.519781" /><g
       id="g2001"
       transform="translate(132.94437,59.31989)"><g
         id="g2377"
         transform="matrix(0.53734815,0,0,0.53734815,-20.142778,36.055031)"><g
           transform="translate(-6.8645,-44.029)"
           stroke-width="0.28411"
           id="g110"
           style="fill:#000000"><path
             d="m 35.651,45.176 0.0142,-0.07927 c -0.025,0.0179 -0.05313,0.03068 -0.07955,0.04631 0.02245,0.0094 0.04347,0.02188 0.06535,0.03296 z"
             opacity="0.34"
             id="path94"
             style="fill:#000000" /><path
             d="m 15.078,56.091 -0.03324,-0.19973 c 0.14802,0.27531 0.35287,0.48214 0.57988,0.58414 -0.0011,0.01108 -0.0031,0.025 -0.0045,0.03551 0.04091,0.0054 0.08268,0.0048 0.12416,0.0065 0.0983,0.02728 0.19945,0.0358 0.30059,0.02017 l 0.03694,-0.0054 c 0.18382,-0.02813 0.34236,-0.13183 0.47106,-0.2807 0.28553,-0.23809 0.43782,-0.60772 0.37077,-1.0168 l -0.21854,-1.3307 -0.28525,-1.897 c -0.10882,-0.72307 -0.56198,-1.2652 -1.0532,-1.3035 0.82905,-3.377 3.7946,-5.8499 7.2853,-5.7894 3.5179,0.06108 6.4139,2.6758 7.0963,6.1198 -0.37219,0.17303 -0.6904,0.62107 -0.79609,1.1899 l -0.54038,2.9054 c -0.05739,0.30741 -0.0429,0.60374 0.02614,0.85888 0.0057,0.02188 0.01477,0.04176 0.02159,0.06307 0.11819,0.37276 0.35656,0.64721 0.67392,0.70688 l 0.03665,0.0065 c 0.04148,0.0077 0.08296,0.01108 0.12444,0.01165 0.06733,0.0142 0.13581,0.02671 0.20826,0.02983 0.06819,0.0031 0.13552,-8.53e-4 0.20172,-0.0085 -0.01904,-0.03978 -0.03381,-0.07643 -0.04659,-0.11222 0.14007,-0.07046 0.2719,-0.17871 0.38668,-0.31878 l 0.64096,0.13041 0.8745,-4.3197 -0.56226,-0.11478 c -0.04489,-0.56255 -0.33184,-1.01 -0.75063,-1.0884 l -0.03637,-0.0071 c -0.10938,-0.02046 -0.21905,-0.01335 -0.32588,0.01591 -0.34662,-3.8469 -3.4207,-6.8866 -7.2174,-6.9526 -3.7901,-0.06535 -6.9625,2.8548 -7.4515,6.6767 -0.0034,2.84e-4 -0.0068,2.84e-4 -0.01023,8.52e-4 l -0.03722,0.006 c -0.44265,0.06733 -0.75347,0.54522 -0.7958,1.1467 l -0.01932,-0.11706 -0.73586,0.12416 0.72478,4.3475 z"
             id="path96"
             style="fill:#000000" /><path
             d="m 23.901,56.706 c 0,0 0.22331,-0.43185 0,-0.62505 -0.22331,-0.19377 -0.48129,-0.38725 -0.57562,-0.40202 h -1.3845 c -0.09404,0.01477 -0.38696,0.20826 -0.61028,0.40202 -0.22331,0.19348 0.0099,0.62505 0.0099,0.62505 0,0 0.66,0.86342 0.87138,1.1018 0.21166,0.23809 0.43867,0.19348 0.43867,0.19348 0,0 0.18723,0.04461 0.39861,-0.19348 0.21166,-0.23837 0.85177,-1.1018 0.85177,-1.1018 z"
             id="path98"
             style="fill:#000000" /><ellipse
             cx="24.139999"
             cy="54.247002"
             rx="0.46169001"
             ry="0.88786"
             id="ellipse100"
             style="fill:#000000" /><ellipse
             cx="21.197001"
             cy="54.247002"
             rx="0.46169001"
             ry="0.88786"
             id="ellipse102"
             style="fill:#000000" /><path
             d="m 35.304,45.166 c 0.02188,0.0099 0.04205,0.02245 0.06336,0.03409 L 35.381,45.11912 c -0.02415,0.0179 -0.05143,0.03125 -0.077,0.04688 z"
             id="path104-3"
             style="fill:#000000" /><path
             d="m 22.611,47.439 c -0.14547,0 -0.28117,0.04744 -0.41016,0.04687 -0.13922,-5.68e-4 -0.26622,0.02206 -0.38867,0.02148 -0.0037,2.85e-4 -0.02784,0.01144 -0.03125,0.01172 0.34293,0.0017 0.58789,0.01563 0.58789,0.01563 v 0.0039 c -4.2452,0.0858 -5.4997,2.9494 -5.8457,4.1211 l 0.56836,3.6641 c 0.10768,0.69352 -0.3607,1.2826 -1.0488,1.3164 -0.14859,0.0071 -0.29466,-0.01708 -0.43359,-0.06055 -0.15371,0.95292 -3.9231,4.2961 -4.3223,4.7891 -0.40231,0.4972 -0.63602,0.83598 -0.11523,1.2383 0.52078,0.40288 1.6426,-0.33988 2.2344,-0.74219 0.59181,-0.40288 1.0078,-0.30273 1.0078,-0.30273 v -0.06055 c 0,0.57275 0.18695,1.3804 0.41406,2.1191 h 1.4551 c 0.01373,-2.0478 0.50358,-4.9897 2.916,-6.7344 0.04006,-0.02898 0.07606,-0.05644 0.11328,-0.08398 l -0.08008,-0.08203 0.23828,-0.24414 c -0.75802,-0.32616 -1.2891,-1.0794 -1.2891,-1.957 0,-1.1768 0.95377,-2.1309 2.1309,-2.1309 0.86229,0 1.6025,0.51358 1.9375,1.25 l 0.36328,-0.36914 0.36914,0.36914 c 0.33526,-0.73671 1.0908,-1.25 1.9531,-1.25 1.1771,0 2.1309,0.95406 2.1309,2.1309 0,0.87763 -0.53104,1.6306 -1.2891,1.957 l 0.23828,0.24414 -0.08203,0.08203 c 0.0375,0.02756 0.07546,0.05501 0.11523,0.08398 2.4126,1.7447 2.9024,4.6866 2.916,6.7344 h 1.4258 c 0.20778,-0.72403 0.37626,-1.4903 0.36914,-2.0586 0,0 0.4492,-0.09986 1.041,0.30273 0.59181,0.40231 1.7527,1.1451 2.2734,0.74219 0.52078,-0.4023 0.28316,-0.74108 -0.11914,-1.2383 -0.36537,-0.45231 -3.571,-3.3015 -4.2188,-4.5059 -0.14092,0.04432 -0.28859,0.06765 -0.43945,0.06055 -0.68812,-0.03381 -1.1587,-0.6226 -1.0508,-1.3164 l 0.51953,-3.3359 c -0.01392,-0.06364 -0.02529,-0.1136 -0.03125,-0.14258 -0.0733,-0.35202 -0.68386,-4.4924 -6.082,-4.5898 v -0.0996 z"
             id="path106-6"
             style="fill:#000000" /><path
             d="m 23.306,47.532 c -0.10058,5.68e-4 -0.1807,8.52e-4 -0.29235,0.0014 -0.09262,2.85e-4 -0.18752,8.53e-4 -0.28582,0.0014 0.1091,-2.84e-4 0.32418,-0.0014 0.53896,-0.0023 -8.52e-4,-2.84e-4 0.04006,-2.84e-4 0.03921,-5.68e-4 z"
             id="path108"
             style="fill:#000000" /></g><g
           transform="matrix(1.382,0,0,1.382,-0.69046,14.193)"
           id="g118"
           style="fill:#000000"><path
             d="m 23.474,9.841 -2,-6 C 21.412,3.656 21.249,3.523 21.055,3.502 l -9,-1 C 12.046,2.501 12.039,2.506 12.03,2.505 12.021,2.504 12.012,2.506 12.003,2.506 11.995,2.506 11.987,2.505 11.98,2.505 11.968,2.505 11.958,2.499 11.946,2.5 l -9,1 C 2.751,3.523 2.588,3.655 2.526,3.84 l -2,6 C 0.474,9.993 0.5,10.161 0.594,10.291 0.688,10.422 0.839,10.499 1,10.499 h 1.5 v 8.5 c 0,0.234 0.163,0.437 0.392,0.488 l 9,2 c 0.035,0.008 0.072,0.012 0.108,0.012 0.036,0 0.073,-0.004 0.108,-0.012 l 9,-2 c 0.229,-0.05 0.392,-0.254 0.392,-0.488 v -8.5 H 23 c 0.161,0 0.312,-0.077 0.406,-0.207 0.093,-0.131 0.119,-0.299 0.068,-0.451 z M 1.694,9.499 3.373,4.46 11.314,3.578 9.623,9.499 Z M 11.5,20.375 3.5,18.598 V 10.499 H 10 c 0.223,0 0.419,-0.148 0.481,-0.364 L 11.5,6.569 Z m 9,-1.776 -8,1.777 V 6.569 l 1.019,3.567 c 0.062,0.215 0.258,0.363 0.481,0.363 h 6.5 z m -6.123,-9.1 -1.691,-5.921 7.941,0.882 1.679,5.039 z"
             id="path116"
             style="fill:#000000" /></g></g></g></g></svg>
