<svg xmlns="http://www.w3.org/2000/svg" viewBox="0 0 77.99 55.9"><defs><style>.cls-1{fill:#ffd297;}.cls-2,.cls-9{fill:#f9a948;}.cls-3{fill:#dd872a;}.cls-4{fill:#ffebd2;}.cls-5{fill:#3e3126;}.cls-6{fill:#fff;}.cls-7{fill:#c9d2df;opacity:0.2;}.cls-7,.cls-9{isolation:isolate;}.cls-8{opacity:0.4;}.cls-9{opacity:0.45;}</style></defs><g id="Layer_2" data-name="Layer 2"><g id="Layer_1-2" data-name="Layer 1"><polygon class="cls-1" points="77.78 19.79 66.07 8.42 64.94 8.71 65.79 8.42 39.24 0.42 38.73 0.42 11.7 8.42 0 19.79 8.67 22.13 8.64 22.23 8.64 47.74 27.19 52.56 27.19 53.11 28.63 52.93 38.49 55.49 39.51 55.49 69.35 47.74 69.35 22.23 69.35 22.07 77.78 19.79"/><polygon class="cls-2" points="65.3 8.62 39.91 15.24 37.82 15.24 11.7 8.42 38.73 0.42 65.3 8.62"/><path class="cls-3" d="M39.1.59c-1.34,3.51-4.58,9.32-10.5,12l-4.7-1.24L12.63,8.41,35,1.8Z"/><path class="cls-2" d="M69.48,21.74V47.46L41.86,54.63l-3,.77L39,51.61l7.66-1.87L61.72,46a6,6,0,0,0,4.59-5.84V22.87Z"/><path class="cls-2" d="M8.63,21.74v24.1c0,.91.24,1.74,1.12,2l26.13,6.78,3.53,1.12-.68-4.15-7.66-1.85L16,46a6,6,0,0,1-4.58-5.84V22.87Z"/><path class="cls-4" d="M11.75,20.48a5.91,5.91,0,0,0,6.16,1.44H18c1.14-.44,2.35-1.36,2.25-2.58a2.55,2.55,0,0,0-.75-1.46A3.7,3.7,0,0,0,17,16.61a8.32,8.32,0,0,0-2.37.42,8.38,8.38,0,0,1-4.83-.35,4.73,4.73,0,0,0-1.16-.36,1.2,1.2,0,0,0-1.1.38A1.25,1.25,0,0,0,8,18.34a6.68,6.68,0,0,0,1.73.7,3.55,3.55,0,0,1,1.62,1.07Z"/><ellipse class="cls-4" cx="12.63" cy="15.6" rx="0.96" ry="2.12" transform="translate(-4 26.83) rotate(-85.04)"/><circle class="cls-5" cx="8.62" cy="38.59" r="0.58"/><ellipse class="cls-6" cx="12.63" cy="33.41" rx="0.45" ry="0.62"/><path class="cls-5" d="M39,14.59a.26.26,0,0,1-.26-.24h0V2.89a.26.26,0,0,1,.2-.31.26.26,0,0,1,.31.21.17.17,0,0,1,0,.1V14.34A.25.25,0,0,1,39,14.59Z"/><path class="cls-5" d="M11.68,8.83A.42.42,0,0,1,11.56,8l27-8a.4.4,0,0,1,.51.27h0a.39.39,0,0,1-.25.5h0l-27,8Z"/><path class="cls-5" d="M65.76,8.83h-.12L39.1.83a.41.41,0,0,1-.27-.51A.4.4,0,0,1,39.34,0h0L65.88,8a.41.41,0,0,1,.28.51A.43.43,0,0,1,65.76,8.83Z"/><path class="cls-5" d="M40.4,15.49H37.28a.26.26,0,0,1-.2-.31.26.26,0,0,1,.2-.2H40.4a.25.25,0,0,1,.2.3A.26.26,0,0,1,40.4,15.49Z"/><path class="cls-2" d="M39.55,54.49a.38.38,0,0,1-.38-.36h0V33.61a.39.39,0,0,1,.44-.32.39.39,0,0,1,.31.32V54.12A.38.38,0,0,1,39.55,54.49Z"/><path class="cls-2" d="M39.55,31.45a.38.38,0,0,1-.38-.36h0V30a.39.39,0,0,1,.44-.32.39.39,0,0,1,.31.32v1.12A.38.38,0,0,1,39.55,31.45Z"/><path class="cls-2" d="M39.55,27.18a.38.38,0,0,1-.38-.38h0V19.27a.39.39,0,0,1,.44-.32.39.39,0,0,1,.31.32V26.8A.38.38,0,0,1,39.55,27.18Z"/><path class="cls-5" d="M38.47,55.9h-.11L9.63,48.44a2,2,0,0,1-1.46-1.89V40.63a.41.41,0,0,1,.41-.41h0a.41.41,0,0,1,.41.41H9v5.92a1.13,1.13,0,0,0,.85,1.09l28.69,7.45a.41.41,0,0,1,.29.5A.39.39,0,0,1,38.47,55.9Z"/><path class="cls-5" d="M8.63,37a.41.41,0,0,1-.41-.41h0V33.89a.41.41,0,0,1,.41-.41h0a.41.41,0,0,1,.41.41H9V36.6a.41.41,0,0,1-.41.41Z"/><path class="cls-5" d="M8.63,31.22a.43.43,0,0,1-.41-.42V22.23a.41.41,0,0,1,.41-.41h0a.41.41,0,0,1,.41.41H9V30.8a.41.41,0,0,1-.4.42Z"/><path class="cls-5" d="M39.49,55.9a.41.41,0,0,1-.43-.39.4.4,0,0,1,.32-.42l28.69-7.45a1.13,1.13,0,0,0,.85-1.09V22.23a.41.41,0,0,1,.82,0h0V46.55a2,2,0,0,1-1.46,1.89L39.63,55.89Z"/><path class="cls-5" d="M30.77,47.74h-.06L23.48,46a.27.27,0,0,1-.19-.31.26.26,0,0,1,.31-.19l7.23,1.72a.26.26,0,0,1,.18.32.27.27,0,0,1-.24.19Z"/><path class="cls-5" d="M30.77,46h-.06l-7.23-1.72a.27.27,0,0,1-.19-.31.27.27,0,0,1,.32-.21h0l7.23,1.72a.26.26,0,0,1-.09.51Z"/><path class="cls-5" d="M30.77,44.17h-.06l-7.23-1.72a.27.27,0,0,1-.19-.31.26.26,0,0,1,.3-.2h0l7.23,1.72a.25.25,0,0,1-.06.5Z"/><polygon class="cls-6" points="30.77 34.96 23.54 33.24 23.54 40.19 30.77 41.91 30.77 34.96"/><path class="cls-7" d="M30.77,35.85v6l-4.6-1.11A12,12,0,0,0,30.77,35.85Z"/><ellipse class="cls-2" cx="64.11" cy="45.37" rx="2.88" ry="2.04" transform="translate(-9.11 16.95) rotate(-14.07)"/><ellipse class="cls-2" cx="65.87" cy="41.22" rx="0.86" ry="1.24" transform="translate(8.15 93.25) rotate(-74.07)"/><g class="cls-8"><circle class="cls-2" cx="61.04" cy="43.66" r="0.53"/><ellipse class="cls-2" cx="62.96" cy="42.26" rx="0.34" ry="0.53" transform="translate(5.04 91.21) rotate(-74.07)"/><circle class="cls-2" cx="59.21" cy="44.72" r="0.21"/></g><ellipse class="cls-2" cx="52.95" cy="47.97" rx="1.04" ry="0.8"/><circle class="cls-2" cx="53.63" cy="46.08" r="0.36"/><circle class="cls-2" cx="50.53" cy="47.99" r="0.5"/><circle class="cls-9" cx="51.31" cy="46.36" r="0.28"/><path class="cls-2" d="M26.79,28a2.3,2.3,0,0,1-.64-.09L10,23.49a.33.33,0,0,1-.25-.4v0a.34.34,0,0,1,.42-.24h0l16.12,4.39a1.66,1.66,0,0,0,1.71-.5l9.4-10.54a.34.34,0,0,1,.48,0,.34.34,0,0,1,0,.48l-9.4,10.54A2.37,2.37,0,0,1,26.79,28Z"/><path class="cls-2" d="M51,28.11a2,2,0,0,1-1.5-.73l-9.42-10.9A.35.35,0,0,1,40,16a.34.34,0,0,1,.48,0l.06.07L50,26.93a1.28,1.28,0,0,0,1.47.42L67.63,23a.34.34,0,0,1,.42.24.34.34,0,0,1-.24.42L51.63,28A2.45,2.45,0,0,1,51,28.11Z"/><path class="cls-4" d="M1.63,19.38a.51.51,0,0,1-.35-.15.5.5,0,0,1,0-.7l9.28-9.11a2.47,2.47,0,0,1,2.36-.62l22.49,6a.52.52,0,1,1-.25,1L12.63,9.74a1.49,1.49,0,0,0-1.41.37L1.93,19.22A.49.49,0,0,1,1.63,19.38Z"/><path class="cls-4" d="M42.38,15.68a.34.34,0,0,1-.09-.67L64.78,9a.35.35,0,0,1,.18.67h0l-22.49,6Z"/><path class="cls-5" d="M27,27.48h-.24l-26.06-7a.91.91,0,0,1-.63-1.12A.82.82,0,0,1,.32,19L11.39,8.18a.4.4,0,0,1,.39-.1L37.92,14.9a.39.39,0,0,1,.29.28.41.41,0,0,1-.09.39l-5.36,6a.43.43,0,0,1-.58,0,.41.41,0,0,1,0-.58h0l4.91-5.5L11.83,8.9.89,19.48v.14l26.06,7,3-3.31a.41.41,0,1,1,.62.55l-2.94,3.28A.94.94,0,0,1,27,27.48Z"/><ellipse class="cls-6" cx="9.61" cy="12.75" rx="1.03" ry="0.84" transform="translate(-6.31 13.88) rotate(-57.05)"/><circle class="cls-6" cx="10.86" cy="11.87" r="0.23"/><circle class="cls-6" cx="9.2" cy="14.34" r="0.29"/><circle class="cls-6" cx="5.19" cy="17.02" r="0.52"/><path class="cls-5" d="M39,54.38a.26.26,0,0,1-.26-.26V33.61a.26.26,0,0,1,.2-.31.26.26,0,0,1,.31.21.17.17,0,0,1,0,.1V54.12A.26.26,0,0,1,39,54.38Z"/><path class="cls-5" d="M39,31.34a.26.26,0,0,1-.26-.26V30a.26.26,0,0,1,.2-.31.26.26,0,0,1,.31.21.17.17,0,0,1,0,.1v1.12A.26.26,0,0,1,39,31.34Z"/><path class="cls-5" d="M39,27.06a.25.25,0,0,1-.26-.24V19.27a.26.26,0,0,1,.31-.21.26.26,0,0,1,.2.21V26.8a.25.25,0,0,1-.24.26Z"/><path class="cls-5" d="M30.77,42.17h-.06l-7.23-1.72a.27.27,0,0,1-.19-.25V37.41a.26.26,0,0,1,.2-.31.26.26,0,0,1,.31.21.17.17,0,0,1,0,.1V40l6.71,1.6V35.16l-6.71-1.6v1.56a.25.25,0,0,1-.2.3.26.26,0,0,1-.31-.2.17.17,0,0,1,0-.1V33.24a.25.25,0,0,1,.09-.2.22.22,0,0,1,.22,0l7.23,1.7A.26.26,0,0,1,31,35v7a.23.23,0,0,1-.1.2A.26.26,0,0,1,30.77,42.17Z"/><path class="cls-6" d="M12.63,32.11a.26.26,0,0,1-.25-.26V29.17a.26.26,0,0,1,.2-.31.26.26,0,0,1,.31.21.17.17,0,0,1,0,.1v2.68A.26.26,0,0,1,12.63,32.11Z"/><path class="cls-5" d="M50.92,27.57a1,1,0,0,1-.75-.33L39.75,15.57a.5.5,0,0,1-.11-.48.48.48,0,0,1,.35-.34L66.13,7.93a.48.48,0,0,1,.48.12L77.68,18.82a1,1,0,0,1-.43,1.72l-26.07,7A1.15,1.15,0,0,1,50.92,27.57Zm-9.87-12,9.87,11,26.06-7L66.11,9Z"/><circle class="cls-5" cx="31.34" cy="22.47" r="0.58"/><path class="cls-5" d="M28.71,20.28h-.1a.27.27,0,0,1,0-.36h0L30.86,17a.24.24,0,0,1,.35,0h0a.25.25,0,0,1,0,.36h0L29,20.29A.3.3,0,0,1,28.71,20.28Z"/><path class="cls-5" d="M31,19.19l-.09-.05a.25.25,0,0,1-.06-.35h0L32,17.23a.24.24,0,0,1,.35,0h0a.25.25,0,0,1,.06.35h0l-1.2,1.55A.27.27,0,0,1,31,19.19Z"/></g></g></svg>