<?xml version="1.0" encoding="UTF-8" standalone="no"?>
<svg
   width="31.785"
   height="43.904"
   version="1.1"
   viewBox="0 0 31.785 43.904"
   xml:space="preserve"
   id="svg124"
   sodipodi:docname="exambox.svg"
   inkscape:version="1.1 (c4e8f9ed74, 2021-05-24)"
   xmlns:inkscape="http://www.inkscape.org/namespaces/inkscape"
   xmlns:sodipodi="http://sodipodi.sourceforge.net/DTD/sodipodi-0.dtd"
   xmlns="http://www.w3.org/2000/svg"
   xmlns:svg="http://www.w3.org/2000/svg"><sodipodi:namedview
     id="namedview126"
     pagecolor="#ffffff"
     bordercolor="#666666"
     borderopacity="1.0"
     inkscape:pageshadow="2"
     inkscape:pageopacity="0.0"
     inkscape:pagecheckerboard="0"
     showgrid="false"
     inkscape:zoom="10.568513"
     inkscape:cx="15.848965"
     inkscape:cy="21.952"
     inkscape:window-width="1920"
     inkscape:window-height="1043"
     inkscape:window-x="0"
     inkscape:window-y="0"
     inkscape:window-maximized="1"
     inkscape:current-layer="svg124" /><defs
     id="defs4"><style
       type="text/css"
       id="style2">
   
    .fil0 {fill:black}
   
  </style></defs><path
     d="m208.3 27.585-20.3-4.3v22.2l0.7 1 32.3 9.8v-32.7zm14.2-7.6 21 4.2 22.9-9.1-0.2-2-18-2.6 8.2-14.8-0.8-1.5-34.2-2.5-1 0.5-6.8 12.5-8.8-12-1-0.4-26.1 4.2-0.7 1.6 9.8 13.9-13.4 3.2v2l34.8 7.3zm-8.8-12.4 30.7 3.7-22.2 6.8-31.6-5.5zm10.4 15.8v33l23-11 0.6-0.9v-18.6l-3.8 1.5z"
     id="path6"
     style="fill:#ffffff" /><text
     x="169.99849"
     y="89.685196"
     fill="#000000"
     font-family="'Helvetica Neue', Helvetica, Arial-Unicode, Arial, Sans-serif"
     font-size="5px"
     font-weight="bold"
     id="text8"
     style="fill:#ffffff">Created by Laymik</text><text
     x="169.99849"
     y="94.685196"
     fill="#000000"
     font-family="'Helvetica Neue', Helvetica, Arial-Unicode, Arial, Sans-serif"
     font-size="5px"
     font-weight="bold"
     id="text10"
     style="fill:#ffffff">from the Noun Project</text><g
     transform="translate(120.38 -222.3)"
     id="g20"
     style="fill:#ffffff"><path
       d="m36.8 28.1c-1.7 0-3.1 1.4-3.1 3.1v2.7c0 1.7 1.4 3.1 3.1 3.1s3.1-1.4 3.1-3.1v-2.7c0-1.7-1.4-3.1-3.1-3.1z"
       id="path12"
       style="fill:#ffffff" /><path
       d="m63.2 28.1c-1.7 0-3.1 1.4-3.1 3.1v2.7c0 1.7 1.4 3.1 3.1 3.1s3.1-1.4 3.1-3.1v-2.7c0-1.7-1.4-3.1-3.1-3.1z"
       id="path14"
       style="fill:#ffffff" /><path
       d="m92.4 45.4c-1.5-24.9-20-44.5-42.4-44.5s-40.9 19.6-42.4 44.5c-2.6 8.7-5.5 18.8-5 20.9 0.7 3 4.6-3.2 6.1-5.9 1.8 8.1 5.6 15.4 11.1 21.3 2 2.1 4.2 4 6.5 5.7-1.8 3.4 0.6 7.9 4.9 7.9h11.2c1.1 0 2-0.3 2.8-0.8 1.6 0.2 3.2 0.3 4.8 0.3s3.2-0.1 4.8-0.3c0.8 0.5 1.7 0.8 2.8 0.8h11.2c4.3 0 6.7-4.6 4.9-7.9 2.3-1.6 4.5-3.5 6.5-5.7 5.5-5.9 9.3-13.2 11.1-21.3 1.6 2.7 5.5 9 6.1 5.9 0.5-2.1-2.3-12.2-5-20.9zm-21.5 39.2c-2.2-1.4-4.8-2.3-7.7-2.3-3.6 0-6.8 1.3-9.3 3.5-1.6 1.4-2.1 3.4-1.7 5.1-0.7 0-1.5 0.1-2.2 0.1s-1.5 0-2.2-0.1c0.4-1.8-0.1-3.7-1.7-5.1-2.4-2.1-5.7-3.5-9.3-3.5-2.9 0-5.5 0.8-7.7 2.3-10.7-7.2-17.9-20.1-17.9-35.7 0-13 4.9-24.6 12.7-32.7 3-3 7.1-4.8 11.6-4.8 6.1 0 11.5 3.3 14.3 8.3 2.8-5 8.2-8.3 14.3-8.3 4.4 0 8.5 1.8 11.4 4.6h0.1c7.9 8.1 13 19.8 13 32.9 0.1 15.6-7 28.4-17.7 35.7z"
       id="path16"
       style="fill:#ffffff" /><path
       d="m50 37.9c-3.8 0-6.9 2.6-7.3 6-0.2 0.8-0.1 1.6 0.4 2.3l5.4 9.1c0.4 0.7 1 1.1 1.5 1.1 0.6 0 1.1-0.4 1.5-1.1l5.4-9.1c0.4-0.7 0.5-1.5 0.4-2.3-0.4-3.3-3.5-6-7.3-6z"
       id="path18"
       style="fill:#ffffff" /></g><g
     transform="matrix(.47896 0 0 .47896 93.891 115.13)"
     id="g32"
     style="fill:#ffffff"><polygon
       transform="translate(234.95 202.14)"
       points="49.3 48.6 37.1 61.3 14.5 52.2 15.1 74.7 49.2 90.1"
       id="polygon22"
       style="fill:#ffffff" /><polygon
       transform="translate(234.95 202.14)"
       points="84.8 52.2 62.2 61.3 50 48.6 50.2 90.1 84.3 74.7"
       id="polygon24"
       style="fill:#ffffff" /><path
       d="m330.65 219.74-35.6-7.4-10.3 15.1h-0.4l-10.2-15.1-35.6 7.4 11.1 17.4-11 11.9 33.8 12.9-31.2-13.5 9.6-10.2 32.8 10.7-11.3 13 12.2-12.4 12.2 12.4-11.2-12.9 32.8-10.7 9.6 10.1-31.1 13.5 33.8-12.9-11-11.9zm-89.4 1.1 32.4-7.4 10.7 14-33.4 9zm43.4 27.3-31.3-10.9 30.5-9 0.8 18 0.8-18 30.5 9zm33.6-11.7-33.4-8.9 10.7-14 32.4 7.3z"
       id="path26"
       style="fill:#ffffff" /><polygon
       transform="translate(234.95 202.14)"
       points="48.9 44.8 48.1 27.7 20.3 35.2"
       id="polygon28"
       style="fill:#ffffff" /><polygon
       transform="translate(234.95 202.14)"
       points="51.3 27.7 50.5 44.8 79 35.2"
       id="polygon30"
       style="fill:#ffffff" /></g><g
     fill="#000000"
     font-family="'Helvetica Neue', Helvetica, Arial-Unicode, Arial, Sans-serif"
     font-size="5px"
     font-weight="bold"
     id="g42"
     style="fill:#ffffff"><text
       x="201.08208"
       y="277.21912"
       id="text34"
       style="fill:#ffffff">Created by superjakne</text><text
       x="201.08208"
       y="282.21912"
       id="text36"
       style="fill:#ffffff">from the Noun Project</text><text
       x="120.38402"
       y="-107.30354"
       id="text38"
       style="fill:#ffffff">Created by Javier Cabezas</text><text
       x="120.38402"
       y="-102.30354"
       id="text40"
       style="fill:#ffffff">from the Noun Project</text></g><g
     transform="translate(-33.869 -39.917)"
     id="g60"
     style="fill:#ffffff"><path
       d="m-83.893 206.91 0.05-0.279c-0.088 0.063-0.187 0.108-0.28 0.163 0.079 0.033 0.153 0.077 0.23 0.116z"
       opacity=".34"
       id="path44"
       style="fill:#ffffff" /><path
       d="m-156.31 245.33-0.117-0.703c0.521 0.969 1.242 1.697 2.041 2.056-4e-3 0.039-0.011 0.088-0.016 0.125 0.144 0.019 0.291 0.017 0.437 0.023 0.346 0.096 0.702 0.126 1.058 0.071l0.13-0.019c0.647-0.099 1.205-0.464 1.658-0.988 1.005-0.838 1.541-2.139 1.305-3.579l-0.769-4.684-1.004-6.677c-0.383-2.545-1.978-4.453-3.707-4.588 2.918-11.886 13.356-20.59 25.642-20.377 12.382 0.215 22.575 9.418 24.977 21.54-1.31 0.609-2.43 2.186-2.802 4.188l-1.902 10.226c-0.202 1.082-0.151 2.125 0.092 3.023 0.02 0.077 0.052 0.147 0.076 0.222 0.416 1.312 1.255 2.278 2.372 2.488l0.129 0.023c0.146 0.027 0.292 0.039 0.438 0.041 0.237 0.05 0.478 0.094 0.733 0.105 0.24 0.011 0.477-3e-3 0.71-0.03-0.067-0.14-0.119-0.269-0.164-0.395 0.493-0.248 0.957-0.629 1.361-1.122l2.256 0.459 3.078-15.204-1.979-0.404c-0.158-1.98-1.168-3.555-2.642-3.831l-0.128-0.025c-0.385-0.072-0.771-0.047-1.147 0.056-1.22-13.54-12.04-24.239-25.403-24.471-13.34-0.23-24.506 10.048-26.227 23.5-0.012 1e-3 -0.024 1e-3 -0.036 3e-3l-0.131 0.021c-1.558 0.237-2.652 1.919-2.801 4.036l-0.068-0.412-2.59 0.437 2.551 15.302z"
       id="path46"
       style="fill:#ffffff" /><path
       d="m-125.25 247.5s0.786-1.52 0-2.2c-0.786-0.682-1.694-1.363-2.026-1.415h-4.873c-0.331 0.052-1.362 0.733-2.148 1.415-0.786 0.681 0.035 2.2 0.035 2.2s2.323 3.039 3.067 3.878c0.745 0.838 1.544 0.681 1.544 0.681s0.659 0.157 1.403-0.681c0.745-0.839 2.998-3.878 2.998-3.878z"
       id="path48"
       style="fill:#ffffff" /><ellipse
       cx="-124.41"
       cy="238.84"
       rx="1.625"
       ry="3.125"
       id="ellipse50"
       style="fill:#ffffff" /><ellipse
       cx="-134.77"
       cy="238.84"
       rx="1.625"
       ry="3.125"
       id="ellipse52"
       style="fill:#ffffff" /><path
       d="m-85.114 206.88c0.077 0.035 0.148 0.079 0.223 0.12l0.048-0.285c-0.085 0.063-0.181 0.11-0.271 0.165z"
       id="path54"
       style="fill:#ffffff" /><path
       d="m-104.71 248.05c-0.496 0.156-1.014 0.239-1.545 0.214-2.422-0.119-4.076-2.19-3.696-4.632l1.826-11.744c-0.049-0.224-0.087-0.396-0.108-0.498-0.258-1.239-2.407-15.813-21.407-16.156v-0.351h-0.149c-0.512 0-0.989 0.162-1.443 0.16-0.49-2e-3 -0.938 0.08-1.369 0.078-0.013 1e-3 -0.096 0.043-0.108 0.044 1.207 6e-3 2.068 0.052 2.068 0.052v0.018c-14.942 0.302-19.359 10.376-20.577 14.5l2.005 12.897c0.379 2.441-1.274 4.513-3.696 4.632-0.523 0.025-1.035-0.056-1.524-0.209-0.541 3.354-13.809 15.119-15.214 16.854-1.416 1.75-2.24 2.942-0.407 4.358 1.833 1.418 5.787-1.197 7.87-2.613 2.083-1.418 3.543-1.062 3.543-1.062v-0.217c0 4.067 2.686 11.508 3.784 13.508h-2e-3l1.159 3.011c-3.896 1.224-6.471 3.421-6.471 5.8 0 0.07 0.018 0.194 0.022 0.265-0.095 0.443-0.147 0.927-0.147 1.397 0 3.59 2.91 6.527 6.5 6.527h16c3.072 0 5.64-2.133 6.318-4.998 0.322-0.591 0.515-1.244 0.515-1.939 0-0.607-0.145-1.184-0.394-1.715-0.612-3.507-6.809-6.264-14.376-6.264-1.95 0-3.794 0.196-5.489 0.529-0.166-0.617-0.293-1.214-0.387-1.749-0.665-4.563-2.277-21.871 9.812-30.614 0.141-0.102 0.27-0.196 0.401-0.293l-0.286-0.294 0.839-0.856c-2.668-1.148-4.537-3.801-4.537-6.89 0-4.142 3.357-7.5 7.5-7.5 3.035 0 5.644 1.807 6.823 4.399l1.274-1.301 1.299 1.301c1.18-2.593 3.842-4.399 6.877-4.399 4.143 0 7.5 3.358 7.5 7.5 0 3.089-1.869 5.741-4.537 6.89l0.839 0.856-0.286 0.294c0.132 0.097 0.261 0.191 0.401 0.293 12.09 8.743 10.478 26.051 9.812 30.614-0.094 0.535-0.221 1.132-0.387 1.749-1.695-0.333-3.539-0.529-5.489-0.529-7.191 0-13.137 2.49-14.237 5.748-0.432 0.663-0.699 1.416-0.699 2.23 0 0.879 0.302 1.691 0.8 2.39 0.829 2.636 3.291 4.548 6.2 4.548h16c3.59 0 6.5-2.91 6.5-6.5 0-0.471-0.053-0.928-0.147-1.371 5e-3 -0.07 0.022-0.141 0.022-0.212 0-2.379-2.574-4.469-6.471-5.692l1.159-2.797h-1e-3c1.098-2.688 3.569-9.654 3.518-13.722l3e-3 3e-3s1.584-0.355 3.667 1.062c2.083 1.416 6.166 4.031 7.999 2.613 1.833-1.416 0.998-2.608-0.418-4.358-1.286-1.592-12.571-11.62-14.851-15.859z"
       id="path56"
       style="fill:#ffffff" /><path
       d="m-127.35 215.2c-0.354 2e-3 -0.636 3e-3 -1.029 5e-3 -0.326 1e-3 -0.66 3e-3 -1.006 5e-3 0.384-1e-3 1.141-5e-3 1.897-8e-3 -3e-3 -1e-3 0.141-1e-3 0.138-2e-3z"
       id="path58"
       style="fill:#ffffff" /></g><text
     x="-206.51289"
     y="272.96536"
     fill="#000000"
     font-family="'Helvetica Neue', Helvetica, Arial-Unicode, Arial, Sans-serif"
     font-size="5px"
     font-weight="bold"
     id="text62"
     style="fill:#ffffff">Created by Hayden Kerrisk</text><text
     x="-206.51289"
     y="277.96536"
     fill="#000000"
     font-family="'Helvetica Neue', Helvetica, Arial-Unicode, Arial, Sans-serif"
     font-size="5px"
     font-weight="bold"
     id="text64"
     style="fill:#ffffff">from the Noun Project</text><g
     transform="translate(-33.869 -39.917)"
     id="g70"
     style="fill:#ffffff"><g
       transform="translate(14.285 202.4)"
       clip-rule="evenodd"
       fill-rule="evenodd"
       image-rendering="optimizeQuality"
       shape-rendering="geometricPrecision"
       id="g68"
       style="fill:#ffffff"><path
         class="fil0"
         d="m44.892 34.416c1.0972 0 1.9866 0.89056 1.9866 1.9866 0 1.0984-0.88938 1.9878-1.9866 1.9878-1.0972 0-1.989-0.88938-1.989-1.9878 0-1.0961 0.89174-1.9866 1.989-1.9866zm23.19 19.05c9.6083-4.5567 19.527-8.8631 26.385-8.041 0.83741 0.10039 0.57638 1.1705 0 2.198-5.4686 9.73-11.854 15.751-19.309 16.433 2.0835 3.4004 3.9603 6.802 5.5465 10.202-19.265 4.128-38.685 5.3067-58.446 0 0.80434-3.3697 1.8449-6.7418 3.1654-10.113-7.4386 1.3087-14.182-0.6815-20.038-9.2706-0.77008-1.1315-0.37205-2.5547 1.05-2.798 3.587-0.613 17.349 2.2228 23.217 3.0555 0.91064-1.6571 1.8992-3.313 2.9705-4.9701-0.71812-1.0063-0.68977-0.95198-1.7516-1.2756-3.0697-0.93544-7.0843-5.7839-9.228-7.3312-4.1339-2.987-5.0835-2.7933 0.18425-4.4244l8.4237-2.6091c2.6244-5.7792 9.6497-11.208 18.236-12.23 14.116-1.6807 21.946 15.233 15.89 26.106 1.2591 1.6902 2.4969 3.378 3.704 5.0682zm24.037-6.1831c-5.4 4.702-9.7123 7.5237-13.224 9.2883-3.6697 1.8425-7.4386 2.602-11.364 3.5681 2.0965 3.0567 8.6989 1.7717 12.62 0.0083 5.1473-2.315 8.8442-7.4575 11.967-12.865zm-65.899 14.453c0.26457-0.61654 0.54095-1.2284 0.82087-1.8366-7.5048 0.68504-16.474-3.2492-19.537-5.8453 4.9075 6.9721 10.625 9.4761 18.716 7.682zm-2.1024-21.199c3.6059 0.95316 7.2119 1.9075 10.818 2.8606-0.12638 0.5752-0.50906 1.4598-1.0606 2.1862-0.62481 0.82324-1.4669 1.4433-2.3988 1.1788-1.7528-0.49843-8.654-6.5741-7.3583-6.2256zm6.7949-3.9272c2.7862 0.12992 2.7378 3.4347 4.4185 5.1366l-13.687-2.7213c3.0898-0.80434 6.1784-1.6099 9.2682-2.4154zm3.5032-0.62481c1.5295 1.4847 2.3811 3.574 2.9788 4.7091 1.8921 3.6012-3.6733 6.4394-2.6858 7.8674 0.33426 0.44882 0.7063 0.9508 1.1173 1.5272-4.7882 7.4068-7.9749 13.693-10.341 22.257 4.5473 1.0914 9.0898 1.8402 13.632 2.2878 5.9599 0.58701 11.92 0.65552 17.881 0.30355 3.0709-5.4957 2.4697-10.935-1.6028-16.886l-6.6508-9.5245c-1.6724-2.3941 2.1744-4.1032 3.965-8.7166 1.7906-4.6134-1.9784-11.198-8.7792-9.945-5.0256 0.92717-8.2005 3.3933-9.515 6.1205z"
         id="path66"
         style="fill:#ffffff" /></g></g><text
     x="-19.584049"
     y="277.48392"
     clip-rule="evenodd"
     fill="#000000"
     fill-rule="evenodd"
     font-family="'Helvetica Neue', Helvetica, Arial-Unicode, Arial, Sans-serif"
     font-size="5px"
     font-weight="bold"
     image-rendering="optimizeQuality"
     shape-rendering="geometricPrecision"
     text-rendering="geometricPrecision"
     id="text72"
     style="fill:#ffffff">Created by Rfourtytwo</text><text
     x="-19.584049"
     y="282.48392"
     clip-rule="evenodd"
     fill="#000000"
     fill-rule="evenodd"
     font-family="'Helvetica Neue', Helvetica, Arial-Unicode, Arial, Sans-serif"
     font-size="5px"
     font-weight="bold"
     image-rendering="optimizeQuality"
     shape-rendering="geometricPrecision"
     text-rendering="geometricPrecision"
     id="text74"
     style="fill:#ffffff">from the Noun Project</text><g
     transform="matrix(.28411 0 0 .28411 -44.599 -51.476)"
     id="g92"
     style="fill:#ffffff"><path
       d="m-83.893 206.91 0.05-0.279c-0.088 0.063-0.187 0.108-0.28 0.163 0.079 0.033 0.153 0.077 0.23 0.116z"
       opacity=".34"
       id="path76"
       style="fill:#ffffff" /><path
       d="m-156.31 245.33-0.117-0.703c0.521 0.969 1.242 1.697 2.041 2.056-4e-3 0.039-0.011 0.088-0.016 0.125 0.144 0.019 0.291 0.017 0.437 0.023 0.346 0.096 0.702 0.126 1.058 0.071l0.13-0.019c0.647-0.099 1.205-0.464 1.658-0.988 1.005-0.838 1.541-2.139 1.305-3.579l-0.769-4.684-1.004-6.677c-0.383-2.545-1.978-4.453-3.707-4.588 2.918-11.886 13.356-20.59 25.642-20.377 12.382 0.215 22.575 9.418 24.977 21.54-1.31 0.609-2.43 2.186-2.802 4.188l-1.902 10.226c-0.202 1.082-0.151 2.125 0.092 3.023 0.02 0.077 0.052 0.147 0.076 0.222 0.416 1.312 1.255 2.278 2.372 2.488l0.129 0.023c0.146 0.027 0.292 0.039 0.438 0.041 0.237 0.05 0.478 0.094 0.733 0.105 0.24 0.011 0.477-3e-3 0.71-0.03-0.067-0.14-0.119-0.269-0.164-0.395 0.493-0.248 0.957-0.629 1.361-1.122l2.256 0.459 3.078-15.204-1.979-0.404c-0.158-1.98-1.168-3.555-2.642-3.831l-0.128-0.025c-0.385-0.072-0.771-0.047-1.147 0.056-1.22-13.54-12.04-24.239-25.403-24.471-13.34-0.23-24.506 10.048-26.227 23.5-0.012 1e-3 -0.024 1e-3 -0.036 3e-3l-0.131 0.021c-1.558 0.237-2.652 1.919-2.801 4.036l-0.068-0.412-2.59 0.437 2.551 15.302z"
       id="path78"
       style="fill:#ffffff" /><path
       d="m-125.25 247.5s0.786-1.52 0-2.2c-0.786-0.682-1.694-1.363-2.026-1.415h-4.873c-0.331 0.052-1.362 0.733-2.148 1.415-0.786 0.681 0.035 2.2 0.035 2.2s2.323 3.039 3.067 3.878c0.745 0.838 1.544 0.681 1.544 0.681s0.659 0.157 1.403-0.681c0.745-0.839 2.998-3.878 2.998-3.878z"
       id="path80"
       style="fill:#ffffff" /><ellipse
       cx="-124.41"
       cy="238.84"
       rx="1.625"
       ry="3.125"
       id="ellipse82"
       style="fill:#ffffff" /><ellipse
       cx="-134.77"
       cy="238.84"
       rx="1.625"
       ry="3.125"
       id="ellipse84"
       style="fill:#ffffff" /><path
       d="m-85.114 206.88c0.077 0.035 0.148 0.079 0.223 0.12l0.048-0.285c-0.085 0.063-0.181 0.11-0.271 0.165z"
       id="path86"
       style="fill:#ffffff" /><path
       d="m-104.71 248.05c-0.496 0.156-1.014 0.239-1.545 0.214-2.422-0.119-4.076-2.19-3.696-4.632l1.826-11.744c-0.049-0.224-0.087-0.396-0.108-0.498-0.258-1.239-2.407-15.813-21.407-16.156v-0.351h-0.149c-0.512 0-0.989 0.162-1.443 0.16-0.49-2e-3 -0.938 0.08-1.369 0.078-0.013 1e-3 -0.096 0.043-0.108 0.044 1.207 6e-3 2.068 0.052 2.068 0.052v0.018c-14.942 0.302-19.359 10.376-20.577 14.5l2.005 12.897c0.379 2.441-1.274 4.513-3.696 4.632-0.523 0.025-1.035-0.056-1.524-0.209-0.541 3.354-13.809 15.119-15.214 16.854-1.416 1.75-2.24 2.942-0.407 4.358 1.833 1.418 5.787-1.197 7.87-2.613 2.083-1.418 3.543-1.062 3.543-1.062v-0.217c0 4.067 2.686 11.508 3.784 13.508h-2e-3l1.159 3.011c-3.896 1.224-6.471 3.421-6.471 5.8 0 0.07 0.018 0.194 0.022 0.265-0.095 0.443-0.147 0.927-0.147 1.397 0 3.59 2.91 6.527 6.5 6.527h16c3.072 0 5.64-2.133 6.318-4.998 0.322-0.591 0.515-1.244 0.515-1.939 0-0.607-0.145-1.184-0.394-1.715-0.612-3.507-6.809-6.264-14.376-6.264-1.95 0-3.794 0.196-5.489 0.529-0.166-0.617-0.293-1.214-0.387-1.749-0.665-4.563-2.277-21.871 9.812-30.614 0.141-0.102 0.27-0.196 0.401-0.293l-0.286-0.294 0.839-0.856c-2.668-1.148-4.537-3.801-4.537-6.89 0-4.142 3.357-7.5 7.5-7.5 3.035 0 5.644 1.807 6.823 4.399l1.274-1.301 1.299 1.301c1.18-2.593 3.842-4.399 6.877-4.399 4.143 0 7.5 3.358 7.5 7.5 0 3.089-1.869 5.741-4.537 6.89l0.839 0.856-0.286 0.294c0.132 0.097 0.261 0.191 0.401 0.293 12.09 8.743 10.478 26.051 9.812 30.614-0.094 0.535-0.221 1.132-0.387 1.749-1.695-0.333-3.539-0.529-5.489-0.529-7.191 0-13.137 2.49-14.237 5.748-0.432 0.663-0.699 1.416-0.699 2.23 0 0.879 0.302 1.691 0.8 2.39 0.829 2.636 3.291 4.548 6.2 4.548h16c3.59 0 6.5-2.91 6.5-6.5 0-0.471-0.053-0.928-0.147-1.371 5e-3 -0.07 0.022-0.141 0.022-0.212 0-2.379-2.574-4.469-6.471-5.692l1.159-2.797h-1e-3c1.098-2.688 3.569-9.654 3.518-13.722l3e-3 3e-3s1.584-0.355 3.667 1.062c2.083 1.416 6.166 4.031 7.999 2.613 1.833-1.416 0.998-2.608-0.418-4.358-1.286-1.592-12.571-11.62-14.851-15.859z"
       id="path88"
       style="fill:#ffffff" /><path
       d="m-127.35 215.2c-0.354 2e-3 -0.636 3e-3 -1.029 5e-3 -0.326 1e-3 -0.66 3e-3 -1.006 5e-3 0.384-1e-3 1.141-5e-3 1.897-8e-3 -3e-3 -1e-3 0.141-1e-3 0.138-2e-3z"
       id="path90"
       style="fill:#ffffff" /></g><g
     transform="translate(-6.8645 -44.029)"
     stroke-width=".28411"
     id="g110"
     style="fill:#ffffff"><path
       d="m35.651 45.176 0.0142-0.07927c-0.025 0.0179-0.05313 0.03068-0.07955 0.04631 0.02245 0.0094 0.04347 0.02188 0.06535 0.03296z"
       opacity=".34"
       id="path94"
       style="fill:#ffffff" /><path
       d="m15.078 56.091-0.03324-0.19973c0.14802 0.27531 0.35287 0.48214 0.57988 0.58414-0.0011 0.01108-0.0031 0.025-0.0045 0.03551 0.04091 0.0054 0.08268 0.0048 0.12416 0.0065 0.0983 0.02728 0.19945 0.0358 0.30059 0.02017l0.03694-0.0054c0.18382-0.02813 0.34236-0.13183 0.47106-0.2807 0.28553-0.23809 0.43782-0.60772 0.37077-1.0168l-0.21854-1.3307-0.28525-1.897c-0.10882-0.72307-0.56198-1.2652-1.0532-1.3035 0.82905-3.377 3.7946-5.8499 7.2853-5.7894 3.5179 0.06108 6.4139 2.6758 7.0963 6.1198-0.37219 0.17303-0.6904 0.62107-0.79609 1.1899l-0.54038 2.9054c-0.05739 0.30741-0.0429 0.60374 0.02614 0.85888 0.0057 0.02188 0.01477 0.04176 0.02159 0.06307 0.11819 0.37276 0.35656 0.64721 0.67392 0.70688l0.03665 0.0065c0.04148 0.0077 0.08296 0.01108 0.12444 0.01165 0.06733 0.0142 0.13581 0.02671 0.20826 0.02983 0.06819 0.0031 0.13552-8.53e-4 0.20172-0.0085-0.01904-0.03978-0.03381-0.07643-0.04659-0.11222 0.14007-0.07046 0.2719-0.17871 0.38668-0.31878l0.64096 0.13041 0.8745-4.3197-0.56226-0.11478c-0.04489-0.56255-0.33184-1.01-0.75063-1.0884l-0.03637-0.0071c-0.10938-0.02046-0.21905-0.01335-0.32588 0.01591-0.34662-3.8469-3.4207-6.8866-7.2174-6.9526-3.7901-0.06535-6.9625 2.8548-7.4515 6.6767-0.0034 2.84e-4 -0.0068 2.84e-4 -0.01023 8.52e-4l-0.03722 6e-3c-0.44265 0.06733-0.75347 0.54522-0.7958 1.1467l-0.01932-0.11706-0.73586 0.12416 0.72478 4.3475z"
       id="path96"
       style="fill:#ffffff" /><path
       d="m23.901 56.706s0.22331-0.43185 0-0.62505c-0.22331-0.19377-0.48129-0.38725-0.57562-0.40202h-1.3845c-0.09404 0.01477-0.38696 0.20826-0.61028 0.40202-0.22331 0.19348 0.0099 0.62505 0.0099 0.62505s0.66 0.86342 0.87138 1.1018c0.21166 0.23809 0.43867 0.19348 0.43867 0.19348s0.18723 0.04461 0.39861-0.19348c0.21166-0.23837 0.85177-1.1018 0.85177-1.1018z"
       id="path98"
       style="fill:#ffffff" /><ellipse
       cx="24.14"
       cy="54.247"
       rx=".46169"
       ry=".88786"
       id="ellipse100"
       style="fill:#ffffff" /><ellipse
       cx="21.197"
       cy="54.247"
       rx=".46169"
       ry=".88786"
       id="ellipse102"
       style="fill:#ffffff" /><path
       d="m35.304 45.166c0.02188 0.0099 0.04205 0.02245 0.06336 0.03409l0.01364-0.08097c-0.02415 0.0179-0.05143 0.03125-0.077 0.04688z"
       id="path104"
       style="fill:#ffffff" /><path
       d="m22.611 47.439c-0.14547 0-0.28117 0.04744-0.41016 0.04687-0.13922-5.68e-4 -0.26622 0.02206-0.38867 0.02148-0.0037 2.85e-4 -0.02784 0.01144-0.03125 0.01172 0.34293 0.0017 0.58789 0.01563 0.58789 0.01563v0.0039c-4.2452 0.0858-5.4997 2.9494-5.8457 4.1211l0.56836 3.6641c0.10768 0.69352-0.3607 1.2826-1.0488 1.3164-0.14859 0.0071-0.29466-0.01708-0.43359-0.06055-0.15371 0.95292-3.9231 4.2961-4.3223 4.7891-0.40231 0.4972-0.63602 0.83598-0.11523 1.2383 0.52078 0.40288 1.6426-0.33988 2.2344-0.74219 0.59181-0.40288 1.0078-0.30273 1.0078-0.30273v-0.06055c0 0.57275 0.18695 1.3804 0.41406 2.1191h1.4551c0.01373-2.0478 0.50358-4.9897 2.916-6.7344 0.04006-0.02898 0.07606-0.05644 0.11328-0.08398l-0.08008-0.08203 0.23828-0.24414c-0.75802-0.32616-1.2891-1.0794-1.2891-1.957 0-1.1768 0.95377-2.1309 2.1309-2.1309 0.86229 0 1.6025 0.51358 1.9375 1.25l0.36328-0.36914 0.36914 0.36914c0.33526-0.73671 1.0908-1.25 1.9531-1.25 1.1771 0 2.1309 0.95406 2.1309 2.1309 0 0.87763-0.53104 1.6306-1.2891 1.957l0.23828 0.24414-0.08203 0.08203c0.0375 0.02756 0.07546 0.05501 0.11523 0.08398 2.4126 1.7447 2.9024 4.6866 2.916 6.7344h1.4258c0.20778-0.72403 0.37626-1.4903 0.36914-2.0586 0 0 0.4492-0.09986 1.041 0.30273 0.59181 0.40231 1.7527 1.1451 2.2734 0.74219 0.52078-0.4023 0.28316-0.74108-0.11914-1.2383-0.36537-0.45231-3.571-3.3015-4.2188-4.5059-0.14092 0.04432-0.28859 0.06765-0.43945 0.06055-0.68812-0.03381-1.1587-0.6226-1.0508-1.3164l0.51953-3.3359c-0.01392-0.06364-0.02529-0.1136-0.03125-0.14258-0.0733-0.35202-0.68386-4.4924-6.082-4.5898v-0.0996z"
       id="path106"
       style="fill:#ffffff" /><path
       d="m23.306 47.532c-0.10058 5.68e-4 -0.1807 8.52e-4 -0.29235 0.0014-0.09262 2.85e-4 -0.18752 8.53e-4 -0.28582 0.0014 0.1091-2.84e-4 0.32418-0.0014 0.53896-0.0023-8.52e-4 -2.84e-4 0.04006-2.84e-4 0.03921-5.68e-4z"
       id="path108"
       style="fill:#ffffff" /></g><g
     transform="translate(-338.15 68.198)"
     id="g114"
     style="fill:#ffffff"><path
       d="m23.474 9.841-2-6c-0.062-0.185-0.225-0.318-0.419-0.339l-9-1c-9e-3 -1e-3 -0.016 4e-3 -0.025 3e-3s-0.018 1e-3 -0.027 1e-3c-8e-3 0-0.016-1e-3 -0.023-1e-3 -0.012 0-0.022-6e-3 -0.034-5e-3l-9 1c-0.195 0.023-0.358 0.155-0.42 0.34l-2 6c-0.052 0.153-0.026 0.321 0.068 0.451 0.094 0.131 0.245 0.208 0.406 0.208h1.5v8.5c0 0.234 0.163 0.437 0.392 0.488l9 2c0.035 8e-3 0.072 0.012 0.108 0.012s0.073-4e-3 0.108-0.012l9-2c0.229-0.05 0.392-0.254 0.392-0.488v-8.5h1.5c0.161 0 0.312-0.077 0.406-0.207 0.093-0.131 0.119-0.299 0.068-0.451zm-21.78-0.342 1.679-5.039 7.941-0.882-1.691 5.921zm9.806 10.876-8-1.777v-8.099h6.5c0.223 0 0.419-0.148 0.481-0.364l1.019-3.566zm9-1.776-8 1.777v-13.807l1.019 3.567c0.062 0.215 0.258 0.363 0.481 0.363h6.5zm-6.123-9.1-1.691-5.921 7.941 0.882 1.679 5.039z"
       id="path112"
       style="fill:#ffffff" /></g><g
     transform="matrix(1.382 0 0 1.382 -.69046 14.193)"
     id="g118"
     style="fill:#ffffff"><path
       d="m23.474 9.841-2-6c-0.062-0.185-0.225-0.318-0.419-0.339l-9-1c-9e-3 -1e-3 -0.016 4e-3 -0.025 3e-3s-0.018 1e-3 -0.027 1e-3c-8e-3 0-0.016-1e-3 -0.023-1e-3 -0.012 0-0.022-6e-3 -0.034-5e-3l-9 1c-0.195 0.023-0.358 0.155-0.42 0.34l-2 6c-0.052 0.153-0.026 0.321 0.068 0.451 0.094 0.131 0.245 0.208 0.406 0.208h1.5v8.5c0 0.234 0.163 0.437 0.392 0.488l9 2c0.035 8e-3 0.072 0.012 0.108 0.012s0.073-4e-3 0.108-0.012l9-2c0.229-0.05 0.392-0.254 0.392-0.488v-8.5h1.5c0.161 0 0.312-0.077 0.406-0.207 0.093-0.131 0.119-0.299 0.068-0.451zm-21.78-0.342 1.679-5.039 7.941-0.882-1.691 5.921zm9.806 10.876-8-1.777v-8.099h6.5c0.223 0 0.419-0.148 0.481-0.364l1.019-3.566zm9-1.776-8 1.777v-13.807l1.019 3.567c0.062 0.215 0.258 0.363 0.481 0.363h6.5zm-6.123-9.1-1.691-5.921 7.941 0.882 1.679 5.039z"
       id="path116"
       style="fill:#ffffff" /></g><text
     x="-338.15143"
     y="107.19804"
     fill="#000000"
     font-family="'Helvetica Neue', Helvetica, Arial-Unicode, Arial, Sans-serif"
     font-size="5px"
     font-weight="bold"
     id="text120"
     style="fill:#ffffff">Created by icon 54</text><text
     x="-338.15143"
     y="112.19804"
     fill="#000000"
     font-family="'Helvetica Neue', Helvetica, Arial-Unicode, Arial, Sans-serif"
     font-size="5px"
     font-weight="bold"
     id="text122"
     style="fill:#ffffff">from the Noun Project</text></svg>
