<svg xmlns="http://www.w3.org/2000/svg" xmlns:xlink="http://www.w3.org/1999/xlink" viewBox="0 0 1620.69 826.99"><defs><style>.cls-1,.cls-15{opacity:0.4;}.cls-1{fill:url(#linear-gradient);}.cls-2{fill:#162126;opacity:0.26;}.cls-3{fill:#e7a56b;}.cls-4,.cls-5{fill:#c8935f;}.cls-4{opacity:0.7;}.cls-6{opacity:0.2;}.cls-7{fill:#98e2ca;}.cls-8{fill:#fff;}.cls-9{fill:#9ebab7;}.cls-10{opacity:0.1;}.cls-11{fill:#f68a5d;}.cls-12{fill:#cc6e4e;}.cls-13{fill:#cb4e53;opacity:0.3;}.cls-14{fill:#fce0c3;}.cls-15,.cls-16{fill:#dbbb9e;}.cls-17{font-size:44.83px;font-family:Dosis-Bold, Dosis;font-weight:700;}.cls-17,.cls-18{fill:#ef473f;}</style><linearGradient id="linear-gradient" x1="314.51" y1="413.49" x2="1601" y2="413.49" gradientUnits="userSpaceOnUse"><stop offset="0" stop-color="#c3f6ee"/><stop offset="0.38" stop-color="#c6ebfd"/></linearGradient></defs><title>Asset 890</title><g id="Layer_2" data-name="Layer 2"><g id="Layer_1-2" data-name="Layer 1"><path class="cls-1" d="M1583.5,499H1338.62q-.47-7-1.15-14h96a17.5,17.5,0,0,0,0-35H1332.26c-4.95-24.07-12.82-46.6-24.9-65.65-23.67-37.31-60.63-55.85-97-59.73S1137.46,330,1101.7,340C1054,353.3,998,365.29,962,321.19c-21.26-26.1-29.74-68.88-22.13-106.15A270.92,270.92,0,0,1,947.36,188H1073.5a17.5,17.5,0,0,0,0-35H956.61a98.7,98.7,0,0,0,1.3-16.3c-.24-28.51-15.09-54-33.46-68.37s-39.87-19.46-61-23.17c-47.21-8.31-95.91-10.77-141.9,5.35C678,3.54,616.75-12.29,563.34,9.87,549,15.83,534.83,24.81,523.67,38H628a17,17,0,0,1,0,34H505.51c-7.87,25.56-7.8,55.35-7.4,83.51.05,3.16.09,6.33.14,9.49H547.5a17.5,17.5,0,0,1,0,35H498.75l.27,19H613.5a17.5,17.5,0,0,1,0,35h-114c.06,4,.11,8.07.17,12.11.41,28.42.72,57.62-6.68,84.25C470.2,432.38,389.39,452.1,345.74,517H529.5a17.5,17.5,0,0,1,0,35H327.91q-2.39,6.36-4.34,13H453.5a17.5,17.5,0,0,1,0,35H316.3a235.66,235.66,0,0,0,13.18,111.63C359.17,789,428.13,828.18,493,827s126.66-36,184.81-74.58c43.95-29.18,89.94-61.78,138.87-57.17,49.89,4.7,92.58,47.07,137.73,75.94,73.5,47,159.13,59,238.28,33.41,35-11.32,69.67-30.56,95.3-64.53,24.86-33,39-76.64,46-123h67a17,17,0,0,0,0-34h-63.13c1.26-15.66,1.84-31.41,1.87-47v-2H1583.5a17.5,17.5,0,0,0,0-35Z"/><ellipse class="cls-2" cx="799" cy="733.22" rx="465" ry="28.01"/><path class="cls-3" d="M1542,743H81c-28.17,0-51-4.83-51-33H1593C1593,738.16,1570.17,743,1542,743Z"/><path class="cls-4" d="M30,714H1593a0,0,0,0,1,0,0v0a19,19,0,0,1-19,19H49a19,19,0,0,1-19-19v0A0,0,0,0,1,30,714Z"/><rect class="cls-3" y="695.99" width="1620" height="18" rx="9" ry="9"/><path class="cls-5" d="M1620.69,709.06c-1.23,2.82-6,4.93-11.69,4.93H11c-6.6,0-10-2.86-10-6.35v-5.29c0-3,4-5.54,9.31-6.19a3.54,3.54,0,0,0-.31,1.42v5.29c0,3.49,5.4,6.35,12,6.35H1618A22.15,22.15,0,0,0,1620.69,709.06Z"/><path class="cls-5" d="M97.43,701.64a474.78,474.78,0,0,0,47.71,2.31c6.12,0,11.08-.09,14.5-.13s5.33,0,5.34.17-1.87.47-5.29.82-8.38.71-14.52.94a352.78,352.78,0,0,1-48-1.57L83.6,702.77c-4.39-.51-8.6-.83-12.63-1-8.06-.44-15.33-.45-21.44-.28-12.22.36-19.76,1.26-19.81.86,0-.16,1.83-.61,5.23-1.13s8.34-1.14,14.49-1.53a208.91,208.91,0,0,1,21.63-.27c4.07.16,8.35.43,12.74.91Z"/><path class="cls-5" d="M246.43,701.64a474.78,474.78,0,0,0,47.71,2.31c6.12,0,11.08-.09,14.5-.13s5.33,0,5.34.17-1.87.47-5.29.82-8.38.71-14.52.94a352.78,352.78,0,0,1-48-1.57l-13.57-1.42c-4.39-.51-8.6-.83-12.63-1-8.06-.44-15.33-.45-21.44-.28-12.22.36-19.76,1.26-19.81.86,0-.16,1.83-.61,5.23-1.13s8.34-1.14,14.49-1.53a208.91,208.91,0,0,1,21.63-.27c4.07.16,8.35.43,12.74.91Z"/><path class="cls-5" d="M590.43,701.64a474.78,474.78,0,0,0,47.71,2.31c6.12,0,11.08-.09,14.5-.13s5.33,0,5.34.17-1.87.47-5.29.82-8.38.71-14.52.94a352.78,352.78,0,0,1-48-1.57l-13.57-1.42c-4.39-.51-8.6-.83-12.63-1-8.06-.44-15.33-.45-21.44-.28-12.22.36-19.76,1.26-19.81.86,0-.16,1.83-.61,5.23-1.13s8.34-1.14,14.49-1.53a208.91,208.91,0,0,1,21.63-.27c4.07.16,8.35.43,12.74.91Z"/><path class="cls-5" d="M929.43,701.64a474.78,474.78,0,0,0,47.71,2.31c6.12,0,11.08-.09,14.5-.13s5.33,0,5.34.17-1.87.47-5.29.82-8.38.71-14.52.94a352.78,352.78,0,0,1-48-1.57l-13.57-1.42c-4.39-.51-8.6-.83-12.63-1-8.06-.44-15.33-.45-21.44-.28-12.22.36-19.76,1.26-19.81.86,0-.16,1.83-.61,5.23-1.13s8.34-1.14,14.49-1.53a208.91,208.91,0,0,1,21.63-.27c4.07.16,8.35.43,12.74.91Z"/><path class="cls-5" d="M1026.46,704.9a285.27,285.27,0,0,0,28.41,4.1c3.66.35,6.63.58,8.68.75a13.39,13.39,0,0,1,3.19.41,12.59,12.59,0,0,1-3.21.19c-2.07,0-5.05-.06-8.74-.27a212,212,0,0,1-28.62-3.68l-8-1.62c-2.59-.56-5.09-1-7.49-1.35-4.79-.72-9.14-1.15-12.81-1.39-7.33-.48-11.89-.37-11.9-.62a12,12,0,0,1,3.2-.38c2.06-.12,5.06-.21,8.75-.09a125.52,125.52,0,0,1,13,1.07c2.42.33,5,.73,7.57,1.27Z"/><path class="cls-5" d="M685.46,704.9a285.27,285.27,0,0,0,28.41,4.1c3.66.35,6.63.58,8.68.75a13.39,13.39,0,0,1,3.19.41,12.59,12.59,0,0,1-3.21.19c-2.07,0-5.05-.06-8.74-.27a212,212,0,0,1-28.62-3.68l-8-1.62c-2.59-.56-5.09-1-7.49-1.35-4.79-.72-9.14-1.15-12.81-1.39-7.33-.48-11.89-.37-11.9-.62a12,12,0,0,1,3.2-.38c2.06-.12,5.06-.21,8.75-.09a125.52,125.52,0,0,1,13,1.07c2.42.33,5,.73,7.57,1.27Z"/><path class="cls-5" d="M344.46,704.9a285.27,285.27,0,0,0,28.41,4.1c3.66.35,6.63.58,8.68.75a13.39,13.39,0,0,1,3.19.41,12.59,12.59,0,0,1-3.21.19c-2.07,0-5.05-.06-8.74-.27a212,212,0,0,1-28.62-3.68l-8-1.62c-2.59-.56-5.09-1-7.49-1.35-4.79-.72-9.14-1.15-12.81-1.39-7.33-.48-11.89-.37-11.9-.62a12,12,0,0,1,3.2-.38c2.06-.12,5.06-.21,8.75-.09a125.52,125.52,0,0,1,13,1.07c2.42.33,5,.73,7.57,1.27Z"/><path class="cls-5" d="M1217.46,704.9a285.27,285.27,0,0,0,28.41,4.1c3.66.35,6.63.58,8.68.75a13.39,13.39,0,0,1,3.19.41,12.59,12.59,0,0,1-3.21.19c-2.07,0-5.05-.06-8.74-.27a212,212,0,0,1-28.62-3.68l-8-1.62c-2.59-.56-5.09-1-7.49-1.35-4.79-.72-9.14-1.15-12.81-1.39-7.33-.48-11.89-.37-11.9-.62a12,12,0,0,1,3.2-.38c2.06-.12,5.06-.21,8.75-.09a125.52,125.52,0,0,1,13,1.07c2.42.33,5,.73,7.57,1.27Z"/><path class="cls-5" d="M1421.46,704.9a285.27,285.27,0,0,0,28.41,4.1c3.66.35,6.63.58,8.68.75a13.39,13.39,0,0,1,3.19.41,12.59,12.59,0,0,1-3.21.19c-2.07,0-5.05-.06-8.74-.27a212,212,0,0,1-28.62-3.68l-8-1.62c-2.59-.56-5.09-1-7.49-1.35-4.79-.72-9.14-1.15-12.81-1.39-7.33-.48-11.89-.37-11.9-.62a12,12,0,0,1,3.2-.38c2.06-.12,5.06-.21,8.75-.09a125.52,125.52,0,0,1,13,1.07c2.42.33,5,.73,7.57,1.27Z"/><path class="cls-5" d="M1288.43,701.64a474.78,474.78,0,0,0,47.71,2.31c6.12,0,11.08-.09,14.5-.13s5.33,0,5.34.17-1.87.47-5.29.82-8.38.71-14.52.94a352.78,352.78,0,0,1-48-1.57l-13.57-1.42c-4.39-.51-8.6-.83-12.63-1-8.06-.44-15.33-.45-21.44-.28-12.22.36-19.76,1.26-19.81.86,0-.16,1.83-.61,5.23-1.13s8.34-1.14,14.49-1.53a208.91,208.91,0,0,1,21.63-.27c4.07.16,8.35.43,12.74.91Z"/><path class="cls-5" d="M1107.43,701.64a474.78,474.78,0,0,0,47.71,2.31c6.12,0,11.08-.09,14.5-.13s5.33,0,5.34.17-1.87.47-5.29.82-8.38.71-14.52.94a352.78,352.78,0,0,1-48-1.57l-13.57-1.42c-4.39-.51-8.6-.83-12.63-1-8.06-.44-15.33-.45-21.44-.28-12.22.36-19.76,1.26-19.81.86,0-.16,1.83-.61,5.23-1.13s8.34-1.14,14.49-1.53a208.91,208.91,0,0,1,21.63-.27c4.07.16,8.35.43,12.74.91Z"/><path class="cls-5" d="M1532.43,701.64a474.78,474.78,0,0,0,47.71,2.31c6.12,0,11.08-.09,14.5-.13s5.33,0,5.34.17-1.87.47-5.29.82-8.38.71-14.52.94a352.78,352.78,0,0,1-48-1.57l-13.57-1.42c-4.39-.51-8.6-.83-12.63-1-8.06-.44-15.33-.45-21.44-.28-12.22.36-19.76,1.26-19.81.86,0-.16,1.83-.61,5.23-1.13s8.34-1.14,14.49-1.53a208.91,208.91,0,0,1,21.63-.27c4.07.16,8.35.43,12.74.91Z"/><path class="cls-5" d="M757.43,701.64a474.78,474.78,0,0,0,47.71,2.31c6.12,0,11.08-.09,14.5-.13s5.33,0,5.34.17-1.87.47-5.29.82-8.38.71-14.52.94a352.78,352.78,0,0,1-48-1.57l-13.57-1.42c-4.39-.51-8.6-.83-12.63-1-8.06-.44-15.33-.45-21.44-.28-12.22.36-19.76,1.26-19.81.86,0-.16,1.83-.61,5.23-1.13s8.34-1.14,14.49-1.53a208.91,208.91,0,0,1,21.63-.27c4.07.16,8.35.43,12.74.91Z"/><path class="cls-5" d="M426.43,701.64a474.78,474.78,0,0,0,47.71,2.31c6.12,0,11.08-.09,14.5-.13s5.33,0,5.34.17-1.87.47-5.29.82-8.38.71-14.52.94a352.78,352.78,0,0,1-48-1.57l-13.57-1.42c-4.39-.51-8.6-.83-12.63-1-8.06-.44-15.33-.45-21.44-.28-12.22.36-19.76,1.26-19.81.86,0-.16,1.83-.61,5.23-1.13s8.34-1.14,14.49-1.53a208.91,208.91,0,0,1,21.63-.27c4.07.16,8.35.43,12.74.91Z"/><g class="cls-6"><rect class="cls-7" x="1470.42" y="585.08" width="92" height="92"/><rect class="cls-8" x="1489.92" y="604.58" width="53" height="53" rx="26.5" ry="26.5"/><rect class="cls-9" x="1505.42" y="622.99" width="8" height="16.17" rx="4" ry="4"/><rect class="cls-9" x="1519.42" y="622.99" width="8" height="16.17" rx="4" ry="4"/></g><path class="cls-10" d="M1047,355.9V684.24c0,11.33-6.52,21-15.75,25a23.37,23.37,0,0,1-9.34,1.94H629.09a23.06,23.06,0,0,1-6.69-1c-10.31-3-18-13-18.38-24.88,0-.34,0-.69,0-1V355.9C604,341,615.23,329,629.09,329h392.81C1035.77,329,1047,341,1047,355.9Z"/><path class="cls-11" d="M1068,324.57V668.46A27.5,27.5,0,0,1,1050.72,694a27.09,27.09,0,0,1-6.1,1.67,28.35,28.35,0,0,1-4.15.31H609.53a28.47,28.47,0,0,1-3.08-.17,26.1,26.1,0,0,1-4.26-.83A27.5,27.5,0,0,1,582,669.53c0-.35,0-.71,0-1.07V324.57A19.57,19.57,0,0,1,601.58,305h446.84A19.57,19.57,0,0,1,1068,324.57Z"/><path class="cls-12" d="M1048.63,685h-3.2v-4h3.2a4.33,4.33,0,0,0,4.31-3.54l3.94.7A8.33,8.33,0,0,1,1048.63,685Zm-7.22,0h-12.05v-4h12.05Zm-16.07,0h-12.05v-4h12.05Zm-16.07,0H997.22v-4h12.05Zm-16.07,0H981.15v-4H993.2Zm-16.07,0H965.08v-4h12.05Zm-16.07,0H949v-4h12.05ZM945,685H932.94v-4H945Zm-16.07,0H916.87v-4h12.05Zm-16.07,0H900.8v-4h12.05Zm-16.07,0H884.73v-4h12.05Zm-16.07,0H868.66v-4h12.05Zm-16.07,0H852.59v-4h12.05Zm-16.07,0H836.52v-4h12.05Zm-16.07,0H820.45v-4H832.5Zm-16.07,0H804.38v-4h12.05Zm-16.07,0H788.31v-4h12.05Zm-16.07,0H772.24v-4H784.3Zm-16.07,0H756.17v-4h12.05Zm-16.07,0H740.1v-4h12.05Zm-16.07,0H724v-4h12.05ZM720,685H708v-4H720Zm-16.07,0H691.9v-4h12.05Zm-16.07,0H675.83v-4h12.05Zm-16.07,0H659.76v-4h12.05Zm-16.07,0H643.69v-4h12.05Zm-16.07,0H627.62v-4h12.05Zm-16.07,0H611.55v-4H623.6Zm-16.07,0h-6.16l-.64,0-.28,0c-.25,0-.51-.07-.76-.12a5.56,5.56,0,0,1-.67-.16l-.19-.06a7.22,7.22,0,0,1-.71-.26,4.15,4.15,0,0,1-.5-.23,4.83,4.83,0,0,1-.48-.26l-.27-.17a3.93,3.93,0,0,1-.39-.26,3.46,3.46,0,0,1-.36-.27,6.34,6.34,0,0,1-.56-.48,7.81,7.81,0,0,1-.62-.67l-.25-.3,3.18-2.43.15.18a4,4,0,0,0,.35.37l.23.19.68.46.11.05.29.14.35.12.15.05.26.06.39.07.21,0h6.51Zm-13.79-8.26H593v-12h4v12ZM1057,673.79h-4V661.73h4ZM597,660.67h-4V648.62h4Zm460-3h-4V645.67h4ZM597,644.6h-4V632.55h4Zm460-3h-4V629.6h4ZM597,628.53h-4V616.48h4Zm460-3h-4V613.53h4ZM597,612.46h-4V600.41h4Zm460-3h-4V597.46h4ZM597,596.39h-4V584.34h4Zm460-3h-4V581.39h4ZM597,580.32h-4V568.27h4Zm460-3h-4V565.32h4ZM597,564.25h-4V552.2h4Zm460-3h-4V549.25h4ZM597,548.18h-4V536.13h4Zm460-3h-4V533.18h4ZM597,532.11h-4V520.06h4Zm460-3h-4V517.11h4ZM597,516h-4V504h4Zm460-3h-4V501h4ZM597,500h-4V487.92h4Zm460-3h-4V485h4ZM597,483.9h-4V471.85h4Zm460-3h-4V468.9h4ZM597,467.83h-4V455.78h4Zm460-3h-4V452.83h4ZM597,451.76h-4V439.71h4Zm460-3h-4V436.76h4ZM597,435.7h-4V423.64h4Zm460-3h-4V420.69h4ZM597,419.63h-4V407.57h4Zm460-3h-4V404.62h4ZM597,403.56h-4V391.5h4Zm460-3h-4V388.55h4ZM597,387.49h-4V375.43h4Zm460-3h-4V372.48h4ZM597,371.42h-4V359.36h4Zm460-3h-4V356.41h4ZM597,355.35h-4V343.3h4Zm460-3h-4V340.34h4ZM597,339.28h-4V327.23h4Zm460-3h-4V324.27l4-.08v12.14ZM597.06,323.55l-3.94-.68a8.32,8.32,0,0,1,8.25-6.88h3.18v4h-3.18A4.33,4.33,0,0,0,597.06,323.55Zm455.14-1.77-.19-.22a2,2,0,0,0-.19-.22l-.08-.09a1.83,1.83,0,0,0-.24-.21,4.39,4.39,0,0,0-2.86-1.06h-6.19v-4h6.19a8.39,8.39,0,0,1,5.37,1.94,5.4,5.4,0,0,1,.67.61,6.19,6.19,0,0,1,.45.51l.21.25-3.22,2.37ZM1038.42,320h-12.05v-4h12.05Zm-16.07,0H1010.3v-4h12.05Zm-16.07,0H994.23v-4h12.05Zm-16.07,0H978.16v-4h12.05Zm-16.07,0H962.09v-4h12.05Zm-16.07,0H946v-4h12.05ZM942,320H930v-4H942Zm-16.07,0H913.88v-4h12.05Zm-16.07,0H897.81v-4h12.05Zm-16.07,0H881.74v-4H893.8Zm-16.07,0H865.68v-4h12.05Zm-16.07,0H849.61v-4h12.05Zm-16.07,0H833.54v-4h12.05Zm-16.07,0H817.47v-4h12.05Zm-16.07,0H801.4v-4h12.05Zm-16.07,0H785.33v-4h12.05Zm-16.07,0H769.26v-4h12.05Zm-16.07,0H753.19v-4h12.05Zm-16.07,0H737.12v-4h12.05Zm-16.07,0H721v-4H733.1ZM717,320H705v-4H717ZM701,320H688.91v-4H701Zm-16.07,0H672.84v-4h12.05Zm-16.07,0H656.77v-4h12.05Zm-16.07,0H640.7v-4h12.05Zm-16.07,0H624.63v-4h12.05Zm-16.07,0H608.56v-4h12.05Z"/><path class="cls-13" d="M1068,555.24V670.93A24,24,0,0,1,1050.72,694c-2.15.64-4.43,2-6.78,2H603.19c-11.31-3.11-20.7-14.26-21.16-26.46a1.75,1.75,0,0,1,1.77-1.5c2.07,0,5.88.1,11.2.13,7.14,0,17,0,29-.21l5.38-.1a.65.65,0,0,0,.14,0q5.26-.12,11-.28l5.92-.18c3-.1,6.12-.2,9.3-.33l5.34-.21,1.12,0,6.67-.3.68,0,5.38-.27,4.74-.24,5.14-.29,5.12-.3,3.7-.23,3.71-.24,1.4-.09,3.54-.24c8.41-.57,17.1-1.24,26-2l4-.35,7.54-.69C847.76,651.35,983.61,626,1055,563.42q5.22-4.57,10-9.42A1.76,1.76,0,0,1,1068,555.24Z"/><path class="cls-10" d="M882,310V486.87c0,12.21-7,22.12-15.56,22.12H783.56C775,509,768,499.08,768,486.87V310Z"/><rect class="cls-10" x="622" y="605.99" width="119" height="71" rx="12" ry="12"/><path class="cls-14" d="M882,304V480.87c0,12.21-7,22.12-15.56,22.12H783.56c-5.74,0-10.76-4.43-13.46-11a29.34,29.34,0,0,1-2.1-11.1V304Z"/><path class="cls-15" d="M882,453.7v27.17c0,12.21-7,22.12-15.56,22.12H783.56c-5.74,0-10.76-4.43-13.46-11C792.1,494,853.31,495.57,882,453.7Z"/><path class="cls-16" d="M841.5,378h-13V357.11l22.79-26.94a1.93,1.93,0,0,0-1.48-3.18H800.17a1.93,1.93,0,0,0-1.48,3.18l22.79,26.94V378h-13a3.65,3.65,0,0,0-3.71,3.33,3.52,3.52,0,0,0,3.51,3.7H841.7a3.52,3.52,0,0,0,3.51-3.7A3.65,3.65,0,0,0,841.5,378Z"/><path class="cls-16" d="M858,427.09l-5.71-9.9-6.93-12a2.55,2.55,0,0,0-4.41,0l-6.93,12-5.71,9.9a4,4,0,0,0,3.42,5.92h5.66v36a5.91,5.91,0,0,0,5,5.93,5.78,5.78,0,0,0,6.54-5.71V433h5.66A4,4,0,0,0,858,427.09Z"/><path class="cls-16" d="M822,427.09l-5.71-9.9-6.93-12a2.55,2.55,0,0,0-4.41,0l-6.93,12-5.71,9.9a4,4,0,0,0,3.42,5.92h5.66v36a5.91,5.91,0,0,0,5,5.93,5.78,5.78,0,0,0,6.54-5.71V433h5.66A4,4,0,0,0,822,427.09Z"/><rect class="cls-8" x="621" y="600.99" width="119" height="71" rx="12" ry="12"/><rect class="cls-16" x="634" y="617.49" width="83" height="5"/><rect class="cls-16" x="634" y="631.74" width="53" height="5"/><rect class="cls-16" x="634" y="645.99" width="53" height="5"/><path class="cls-15" d="M739.9,661.52A12,12,0,0,1,728,672H633a12,12,0,0,1-9-4C652.7,667.45,693.74,665.88,739.9,661.52Z"/><text class="cls-17" transform="matrix(0.89, -0.45, 0.45, 0.89, 849.9, 591)">FRAGILE</text><path class="cls-14" d="M623,379.46a40.36,40.36,0,0,0-1.37-7,39.63,39.63,0,0,0-2.08-5.6,40.81,40.81,0,0,0-14.93-17.28A40.63,40.63,0,0,0,582.5,343H582V350h.5a33.58,33.58,0,0,1,21.64,7.88,34.36,34.36,0,0,1,3.81,3.74,33.58,33.58,0,0,1,8.26,22.09c0,.61,0,1.23-.05,1.83a33.41,33.41,0,0,1-1.2,7.28,33.72,33.72,0,0,1-8.7,14.78c-.68.68-1.39,1.34-2.13,2a33.58,33.58,0,0,1-21.64,7.88H582v7.06h.5a40.32,40.32,0,0,0,21.64-6.24,41.08,41.08,0,0,0,12.93-13,40.33,40.33,0,0,0,3.63-7.36,39.32,39.32,0,0,0,1.67-5.75,41.71,41.71,0,0,0,.87-7.07c0-.46,0-.93,0-1.4A40.44,40.44,0,0,0,623,379.46Z"/><path class="cls-12" d="M646.1,379.74a38.83,38.83,0,0,1-19.55-5.29A34.08,34.08,0,0,0,600.49,371l-17.25,4.59L582,371l17.25-4.59a38.74,38.74,0,0,1,29.63,4,34.15,34.15,0,0,0,25.37,3.67l19.61-4.78,1.11,4.55-19.61,4.78A39.2,39.2,0,0,1,646.1,379.74Z"/><path class="cls-12" d="M646.1,388.22a38.83,38.83,0,0,1-19.55-5.29,34.08,34.08,0,0,0-26.07-3.49L583.23,384,582,379.51l17.25-4.59a38.74,38.74,0,0,1,29.63,4,34.15,34.15,0,0,0,25.37,3.67l19.61-4.78,1.11,4.55-19.61,4.78A39.19,39.19,0,0,1,646.1,388.22Z"/><path class="cls-12" d="M646.1,396.7a38.82,38.82,0,0,1-19.55-5.29,34.08,34.08,0,0,0-26.07-3.49l-17.25,4.59L582,388l17.25-4.59a38.74,38.74,0,0,1,29.63,4A34.15,34.15,0,0,0,654.28,391l19.61-4.78,1.11,4.55-19.61,4.78A39.2,39.2,0,0,1,646.1,396.7Z"/><path class="cls-12" d="M646.1,405.18a38.83,38.83,0,0,1-19.55-5.29,34.08,34.08,0,0,0-26.07-3.49L583.23,401,582,396.46l17.25-4.59a38.74,38.74,0,0,1,29.63,4,34.15,34.15,0,0,0,25.37,3.67l19.61-4.78,1.11,4.55-19.61,4.78A39.2,39.2,0,0,1,646.1,405.18Z"/><path class="cls-18" d="M847.17,611.26l-29.9-60,163.17-81.37,29.9,60Zm-25.88-58.61,27.22,54.59,157.8-78.69L979.09,474Z"/></g></g></svg>